<svg xmlns="http://www.w3.org/2000/svg" viewBox="0 0 305.91 61.78">
  <defs>
    <style>
      .cls-1 {
        fill: #12100b;
      }

      .cls-1, .cls-2, .cls-3, .cls-4, .cls-5, .cls-6 {
        fill-rule: evenodd;
      }

      .cls-2 {
        fill: #f9b000;
      }

      .cls-3 {
        fill: #005f94;
      }

      .cls-4 {
        fill: #d2091e;
      }

      .cls-5 {
        fill: #fff;
      }

      .cls-6 {
        fill: #008251;
      }
    </style>
  </defs>
  <g id="Capa_2" data-name="Capa 2">
    <g id="Primer_plano" data-name="Primer plano">
      <g>
        <path class="cls-1" d="M299.71,19l1.92,4.54h-3.82Zm.6-2.39H300l-3.36,8c-.68,1.61-1.11,2.81-2.13,2.9v.31h3.27v-.31c-.56,0-1.12-.15-1.12-.7a12.2,12.2,0,0,1,.89-2.56h4.33l.6,1.41c.63,1.47.64,1.78-.76,1.85v.31h4.21v-.31c-.92.05-1.27-.94-1.57-1.62Zm-7.83,0h-.35c-.55,1.34-1.37,0-3.64,0a5.5,5.5,0,0,0-5.66,5.73A5.37,5.37,0,0,0,288.52,28a5.79,5.79,0,0,0,4.3-2.07l-.28-.33a5.07,5.07,0,0,1-3.87,1.65c-2.71,0-3.92-2.5-3.92-4.81,0-3,1.18-5.18,3.91-5.18a3.64,3.64,0,0,1,3.57,3.06h.39Zm-13,1.54c0-.48.24-1,1.62-1v-.32h-4.93v.32c1.37,0,1.62.53,1.62,1v8.3c0,.48-.25,1-1.62,1v.31h4.93v-.31c-1.38,0-1.62-.53-1.62-1Zm-6.34,0c0-.48.24-1,1.6-1v-.32H270.8v.32c1.36,0,1.61.53,1.61,1V24.8l-6.37-8h-2.83v.32a1.56,1.56,0,0,1,1.47.74l.14.17v8.4c0,.48-.25,1-1.61,1v.31h3.94v-.31c-1.36,0-1.6-.53-1.6-1V18.92L272.89,28h.25Zm-11.89-1.54h-.34c-.55,1.34-1.38,0-3.64,0a5.5,5.5,0,0,0-5.66,5.73A5.37,5.37,0,0,0,257.3,28,5.8,5.8,0,0,0,261.6,26l-.28-.33a5.07,5.07,0,0,1-3.87,1.65c-2.71,0-3.92-2.5-3.92-4.81,0-3,1.18-5.18,3.9-5.18A3.65,3.65,0,0,1,261,20.35h.39ZM249.18,27.79l.74-2.79h-.46c-.88,2.1-2.14,2.11-3.46,2.11h-2.18c-.33,0-.43-.34-.43-.64V22.4h2.33c1.11,0,2.05.32,2.05,1.61h.35V20.14h-.35c0,1.28-.94,1.58-2.05,1.58h-2.33V18.17a.65.65,0,0,1,.73-.65h2.66a1.86,1.86,0,0,1,1.88,1.69H249V16.84h-8.78v.32c1.2,0,1.45.53,1.45,1v8.3c0,.48-.25,1-1.45,1v.31Zm-12.81-.31c-1.21,0-1.45-.53-1.45-1V17.54h1.18c1.23,0,2,0,2.35,2.12h.4l-.1-2.82h-9.36l-.1,2.82h.4c.36-2.12,1.12-2.12,2.35-2.12h1.19v8.93c0,.48-.25,1-1.46,1v.31h4.6ZM213.22,18.3c0-.79.15-.84.94-.84,3.06,0,5.18,1.67,5.18,4.91,0,3.08-2,4.89-5.33,4.74a.74.74,0,0,1-.79-.8Zm1.26,9.49c4.43,0,6.66-2.08,6.66-5.44,0-3.72-2.56-5.51-6.8-5.51h-4.26v.32c1.2,0,1.45.53,1.45,1v8.3c0,.48-.25,1-1.45,1v.31ZM202.37,19l1.91,4.54h-3.82Zm.59-2.39h-.33l-3.36,8c-.68,1.61-1.11,2.81-2.13,2.9v.31h3.27v-.31c-.56,0-1.12-.15-1.12-.7a12.2,12.2,0,0,1,.89-2.56h4.33l.6,1.41c.63,1.47.64,1.78-.76,1.85v.31h4.21v-.31c-.92.05-1.27-.94-1.57-1.62ZM188.17,18.3c0-.79.15-.84.94-.84,3.06,0,5.18,1.67,5.18,4.91,0,3.08-1.95,4.89-5.33,4.74a.74.74,0,0,1-.79-.8Zm1.25,9.49c4.44,0,6.67-2.08,6.67-5.44,0-3.72-2.56-5.51-6.8-5.51H185v.32c1.2,0,1.45.53,1.45,1v8.3c0,.48-.25,1-1.45,1v.31Zm-7.54-9.62c0-.48.25-1,1.62-1v-.32h-4.93v.32c1.38,0,1.63.53,1.63,1v8.3c0,.48-.25,1-1.63,1v.31h4.93v-.31c-1.37,0-1.62-.53-1.62-1ZM169.36,28h.36c.17-1.21,1.36,0,3.08,0a3.2,3.2,0,0,0,3.49-3c0-2-1.53-2.7-3.77-4.05-.71-.43-1.76-1.11-1.76-2.07a1.56,1.56,0,0,1,1.74-1.59,3.35,3.35,0,0,1,3,2.85h.41l-.36-3.53h-.35c-.39,1.23-1.19,0-2.94,0a2.78,2.78,0,0,0-2.93,2.77c0,3.15,4.52,3.26,5.19,5.57a1.86,1.86,0,0,1-1.86,2.44,3.78,3.78,0,0,1-3.43-2.92h-.38Zm-9.85-9.78c0-.78.15-.78,1.22-.78,1.49,0,2.65.65,2.65,2.29s-1.47,2.28-3.87,2.36Zm-1.69,8.22c0,.48-.25,1-1.4,1v.31H161v-.31c-1.2,0-1.45-.53-1.45-1V22.73l.92,0,3.94,5.09H167v-.31a2,2,0,0,1-1.57-.93l-3.27-4c1.55-.22,3-1,3-2.78,0-1.94-1.65-2.9-4.4-2.9h-4.36v.32c1.15,0,1.4.53,1.4,1Zm-3.49,1.32.74-2.79h-.46c-.88,2.1-2.13,2.11-3.46,2.11H149c-.33,0-.43-.34-.43-.64V22.4h2.33c1.11,0,2,.32,2,1.61h.35V20.14h-.35c0,1.28-.94,1.58-2,1.58h-2.33V18.17a.65.65,0,0,1,.73-.65h2.66a1.86,1.86,0,0,1,1.88,1.69h.37V16.84H145.4v.32c1.21,0,1.45.53,1.45,1v8.3c0,.48-.24,1-1.45,1v.31ZM138.51,28h.22c.9-2.39,2.61-6.75,3.83-9.68.27-.66.6-1.17,1.38-1.19v-.32h-3.39v.32c.47,0,1.2.08,1.2.71a4.67,4.67,0,0,1-.39,1.37L139,25.13l-2.42-5.41a10,10,0,0,1-.76-1.95c0-.39.18-.61,1.24-.61v-.32h-4.4v.32c1,0,1.39.92,1.84,1.92Zm-9-9.86c0-.48.25-1,1.62-1v-.32h-4.93v.32c1.37,0,1.62.53,1.62,1v8.3c0,.48-.25,1-1.62,1v.31h4.93v-.31c-1.37,0-1.62-.53-1.62-1Zm-6.34,0c0-.48.25-1,1.6-1v-.32h-3.93v.32c1.35,0,1.6.53,1.6,1V24.8l-6.36-8h-2.83v.32a1.56,1.56,0,0,1,1.47.74l.13.17v8.4c0,.48-.25,1-1.6,1v.31h3.93v-.31c-1.35,0-1.6-.53-1.6-1V18.92L122.94,28h.25Zm-21.26,5.44c0,3,1.23,4.42,4.23,4.42a5.64,5.64,0,0,0,2.12-.44c1.87-.89,2-2.34,2-4.21V18.17c0-.48.25-1,1.55-1v-.32H108v.32c1.31,0,1.56.53,1.56,1v5.21c0,1.57,0,3.9-3.11,3.9-2.07,0-2.86-1-2.86-3.56V18.17c0-.48.25-1,1.45-1v-.32h-4.59v.32c1.2,0,1.45.53,1.45,1ZM299.71,36.12l1.92,4.54h-3.82Zm.6-2.38H300l-3.36,8c-.68,1.6-1.11,2.81-2.13,2.89v.32h3.27V44.6c-.56,0-1.12-.15-1.12-.69a12.08,12.08,0,0,1,.89-2.57h4.33l.6,1.41c.63,1.47.64,1.79-.76,1.85v.32h4.21V44.6c-.92,0-1.27-.94-1.57-1.62Zm-8.43,1.55c0-.48.24-1,1.62-1V34h-4.93v.31c1.37,0,1.62.53,1.62,1v8.3c0,.48-.25,1-1.62,1v.32h4.93V44.6c-1.38,0-1.62-.53-1.62-1Zm-11.82.09c0-.78.15-.78,1.22-.78,1.49,0,2.65.64,2.65,2.28s-1.47,2.28-3.87,2.36Zm-1.69,8.21c0,.48-.24,1-1.4,1v.32h4.55V44.6c-1.21,0-1.46-.53-1.46-1V39.86l.93,0,3.93,5.1h2.66V44.6a2,2,0,0,1-1.57-.92l-3.27-4c1.55-.21,3-1,3-2.78,0-1.93-1.65-2.89-4.4-2.89H277v.31c1.16,0,1.4.53,1.4,1Zm-8.53-7.47,1.91,4.54h-3.82Zm.59-2.38h-.33l-3.36,8c-.67,1.6-1.1,2.81-2.13,2.89v.32h3.27V44.6c-.56,0-1.12-.15-1.12-.69a12.66,12.66,0,0,1,.89-2.57H272l.59,1.41c.63,1.47.65,1.79-.76,1.85v.32H276V44.6c-.93,0-1.28-.94-1.57-1.62Zm-8.31,1.55c0-.48.25-1,1.46-1V34h-3.29l-3.66,8.35L252.81,34h-3.27v.31c1.32,0,1.57.53,1.57,1v8.3c0,.48-.25,1-1.6,1v.32h3.93V44.6c-1.35,0-1.6-.53-1.6-1v-7.7l4.15,9h.23l4.23-9.41v8.08c0,.48-.24,1-1.45,1v.32h4.6V44.6c-1.21,0-1.46-.53-1.46-1Zm-24.1.83,1.92,4.54h-3.82Zm.6-2.38h-.34l-3.35,8c-.68,1.6-1.11,2.81-2.14,2.89v.32h3.28V44.6c-.56,0-1.13-.15-1.13-.69a12.13,12.13,0,0,1,.9-2.57h4.33l.59,1.41c.63,1.47.65,1.79-.76,1.85v.32h4.22V44.6c-.92,0-1.27-.94-1.57-1.62ZM230.86,44.6c-1.21,0-1.46-.53-1.46-1V34.66h1.19c1.23,0,2,0,2.35,2.12h.4l-.1-2.81h-9.36l-.1,2.81h.39c.37-2.12,1.13-2.12,2.35-2.12h1.19v8.93c0,.48-.25,1-1.45,1v.32h4.6Zm-9.63-9.31c0-.48.24-1,1.6-1V34H218.9v.31c1.35,0,1.6.53,1.6,1v6.63l-6.37-8H211.3v.31a1.56,1.56,0,0,1,1.48.75l.13.16v8.4c0,.48-.25,1-1.61,1v.32h3.94V44.6c-1.36,0-1.6-.53-1.6-1V36L221,45.15h.25Zm-17.06.83,1.92,4.54h-3.82Zm.6-2.38h-.33l-3.36,8c-.68,1.6-1.11,2.81-2.13,2.89v.32h3.27V44.6c-.56,0-1.13-.15-1.13-.69a12.13,12.13,0,0,1,.9-2.57h4.33l.6,1.41c.63,1.47.64,1.79-.76,1.85v.32h4.21V44.6c-.92,0-1.27-.94-1.57-1.62ZM190.23,45.15h.36c.17-1.21,1.36,0,3.08,0a3.2,3.2,0,0,0,3.49-3c0-2-1.52-2.69-3.77-4-.71-.43-1.75-1.11-1.75-2.07a1.55,1.55,0,0,1,1.73-1.59,3.35,3.35,0,0,1,3,2.85h.41l-.36-3.52h-.35c-.39,1.22-1.19,0-2.94,0a2.78,2.78,0,0,0-2.93,2.76c0,3.16,4.52,3.26,5.19,5.57a1.87,1.87,0,0,1-1.86,2.45,3.79,3.79,0,0,1-3.43-2.93h-.38ZM178.36,34.33c2.56,0,3.54,2.52,3.54,5.11.08,1.77-.6,4.88-3.54,5.11-2,.15-3.54-1.7-3.54-5.11C174.82,36.28,175.9,34.5,178.36,34.33Zm0-.59c-3.22-.07-5.42,2.41-5.42,5.7a5.4,5.4,0,0,0,5.42,5.71c3.31,0,5.41-2.52,5.41-5.71C183.77,35.92,181.22,33.6,178.36,33.74Zm-7.28,0h-.35c-.55,1.34-1.37,0-3.64,0a5.49,5.49,0,0,0-5.65,5.72,5.36,5.36,0,0,0,5.69,5.69,5.78,5.78,0,0,0,4.29-2.07l-.28-.33a5.06,5.06,0,0,1-3.87,1.66c-2.71,0-3.92-2.5-3.92-4.82,0-3,1.18-5.18,3.91-5.18a3.65,3.65,0,0,1,3.57,3.06h.4Zm-12.55,1.54c0-.48.24-1,1.62-1V34h-4.93v.31c1.37,0,1.62.53,1.62,1v8.3c0,.48-.25,1-1.62,1v.32h4.93V44.6c-1.38,0-1.62-.53-1.62-1Zm-11.82.09c0-.78.15-.78,1.23-.78,1.48,0,2.64.64,2.64,2.28s-1.47,2.28-3.87,2.36ZM145,43.59c0,.48-.25,1-1.41,1v.32h4.55V44.6c-1.21,0-1.46-.53-1.46-1V39.86l.93,0,3.93,5.1h2.67V44.6a2,2,0,0,1-1.57-.92l-3.28-4c1.56-.21,3-1,3-2.78,0-1.93-1.65-2.89-4.39-2.89h-4.37v.31c1.16,0,1.41.53,1.41,1ZM142,44.92l.74-2.8h-.46c-.88,2.1-2.13,2.12-3.46,2.12h-2.18c-.33,0-.43-.35-.43-.65V39.53h2.33c1.11,0,2,.31,2,1.6h.35V37.26h-.35c0,1.29-.94,1.59-2,1.59h-2.33V35.29a.65.65,0,0,1,.73-.64h2.66a1.87,1.87,0,0,1,1.89,1.68h.36V34h-8.78v.31c1.21,0,1.45.53,1.45,1v8.3c0,.48-.24,1-1.45,1v.32Zm-18.06-9.5c0-.79.15-.84.94-.84,3.06,0,5.18,1.67,5.18,4.91,0,3.08-2,4.9-5.33,4.75a.76.76,0,0,1-.79-.81Zm1.25,9.5c4.44,0,6.67-2.09,6.67-5.45,0-3.72-2.57-5.5-6.8-5.5h-4.27v.31c1.21,0,1.46.53,1.46,1v8.3c0,.48-.25,1-1.46,1v.32Zm-6.17,0,.74-2.8h-.46c-.87,2.1-2.13,2.12-3.45,2.12h-2.19c-.33,0-.43-.35-.43-.65V39.53h2.34c1.1,0,2,.31,2,1.6h.34V37.26h-.34c0,1.29-.95,1.59-2,1.59h-2.34V35.29a.65.65,0,0,1,.73-.64h2.66a1.86,1.86,0,0,1,1.89,1.68h.36V34h-8.78v.31c1.21,0,1.46.53,1.46,1v8.3c0,.48-.25,1-1.46,1v.32Zm-14,0V44.6c-1.24,0-1.49-.53-1.49-1V39.53h2.19c1.1,0,2.05.31,2.05,1.6h.34V37.26h-.34c0,1.29-1,1.59-2.05,1.59h-2.19V35.29c0-.39.14-.64.71-.64h2.19c1.15,0,2.15-.14,2.36,1.68h.4V34h-8.8v.31c1.21,0,1.46.53,1.46,1v8.3c0,.48-.25,1-1.46,1v.32Z"/>
        <g>
          <g>
            <path class="cls-2" d="M80.16,12.46H45.94l0,26.25a1.17,1.17,0,0,0,0,.2,5.66,5.66,0,0,0,1.58,3,6.1,6.1,0,0,0,4.55,2,3.72,3.72,0,0,0,.5,0h5.61s.51,0,1.14.06c2,.2,2.64.87,3.74,2.43a4.46,4.46,0,0,1,4.47-2.49h7A6.41,6.41,0,0,0,80,39.52a4.73,4.73,0,0,0,.21-.9Z"/>
            <path class="cls-3" d="M2.4.64A4.24,4.24,0,0,1,4.55,4.25V38.69s0,.08,0,.2a5.89,5.89,0,0,0,1.64,2.94,7,7,0,0,0,5,2h5.74s.46,0,1,0c1.91.18,2.66.84,3.71,2.39a4.69,4.69,0,0,1,4.62-2.43h6.85a7,7,0,0,0,5.43-4.38,2.25,2.25,0,0,0,.19-.73V4.58a9.23,9.23,0,0,1,.14-1A3.48,3.48,0,0,1,41,.64H31.55v33a6.32,6.32,0,0,1-.12.73,2.89,2.89,0,0,1-2.29,2.33H14.58a6.66,6.66,0,0,1-.78-.29,3,3,0,0,1-2-2.76V.64Z"/>
            <path class="cls-3" d="M43.74.65a4.28,4.28,0,0,1,2.2,3.61v7.57H80.16V4.58a8.42,8.42,0,0,1,.19-1,4.26,4.26,0,0,1,2-2.9Z"/>
            <g>
              <path class="cls-1" d="M69.55,38.6a2.33,2.33,0,0,0-.15.68l.13-.05A3.71,3.71,0,0,1,69.55,38.6ZM70.88,40l.06.22a2.34,2.34,0,0,1-.15.2,1,1,0,0,1-.89.3,2.2,2.2,0,0,1-.76-.43l.09,0L69,40.08c-.34.22-1,0-1.34-.15l.16-.19a4.29,4.29,0,0,1-.62-.19l.24-.36a1.21,1.21,0,0,1,.55-.45l.09-.17a2,2,0,0,0-.12-1.85,1.44,1.44,0,0,1-.3-.59,5.44,5.44,0,0,0-2,.71,1,1,0,0,1-.76.08l-.07,0a.22.22,0,0,1-.15-.21c-.67,0-1.33,0-2,.08,0,.2.08.55.12.8a4.51,4.51,0,0,0,.17,1.1l.08.2a.65.65,0,0,1,0,.62l0,.12c.07.39-.43.49-.72.49a1.43,1.43,0,0,1-.68-.29l0-.13-.19-.07a3.35,3.35,0,0,1-.31-.18,2.74,2.74,0,0,1,.07-.27,1.53,1.53,0,0,1,.23-.44v-.79l-.09-.12-.08-.12a2.32,2.32,0,0,0-.21,1.15l0,.15a.54.54,0,0,1-.22.63l.1.43s-.13.13-.22.2a1.27,1.27,0,0,1-1.29.13,1,1,0,0,1,0-.17.3.3,0,0,1,0-.1,3,3,0,0,1-.52-.13,2.37,2.37,0,0,1,.1-.37,1.92,1.92,0,0,1,.42-.64l.07-.07a2.43,2.43,0,0,1,.08-.47c.21-.61-.21-.55-.15-1.33-.37-.26-1-.53-1.19-.92a2.08,2.08,0,0,0-.24-.34l0-.07c-.21-.15-.24-.09-.29-.39l0-.15a1.5,1.5,0,0,0-.31-.6c-.7-.54-1.06.05-1.66-.23l-.09,0a.54.54,0,0,0-.51-.14l-.1,0c-.4.16-1,.21-1.19-.26a.82.82,0,0,1-.46-.4.65.65,0,0,1,.1-.77l.08-.07c.26-.24.14-.72.61-1.15s.17-.53.5-.86a3,3,0,0,1-.92-.75l.27-.32.39.19a1.22,1.22,0,0,0,.73.14l.12-.05a.74.74,0,0,1,.6,0l.08.05.1.07c.2.11.36-.2.85,0a.28.28,0,0,0,.13,0c.17,0,.79-.12,1.31-.12s.93.14,1.53.16.86,0,1.41,0c1.06,0,1.65.18,2.72.17,1.54,0,2.39-.43,3.93-.4,1.07,0,2.74-.11,3.24.95A1.19,1.19,0,0,1,71.82,32a2.71,2.71,0,0,1-.49,1.83,2.45,2.45,0,0,0-.59,2.59,2.47,2.47,0,0,1,.19,1.76A8.08,8.08,0,0,0,71,39.25l0,.12,0,.15C71.15,39.74,71.14,39.88,70.88,40Z"/>
              <path class="cls-4" d="M70.06,39.44l-.5.25a1,1,0,0,0-.19.15l.18.06a.59.59,0,0,0,.59-.21Zm-1.73-.36-.21.05a.66.66,0,0,0-.27.2C68.35,39.45,68.44,39.49,68.33,39.08Zm1.72-5.62a3.1,3.1,0,0,0,.91-1,.78.78,0,0,0,0-.09c.16-.63.08-1.4-.42-1.65a5.63,5.63,0,0,0-2.48-.31c-1.54,0-2.39.39-3.93.4-1.07,0-1.66-.16-2.73-.17-.55,0-.87,0-1.42,0s-.92-.17-1.51-.17-1.14.12-1.31.12-.34-.19-.6-.08a.57.57,0,0,1-.54,0l-.08,0-.11-.07a.28.28,0,0,0-.28,0l-.14.05-.18,0,.45.2c-.5.33-.58.28-.75.8s-.48.48-.6.92a1.43,1.43,0,0,1-.33.69l-.09.08c-.21.21.15.49.39.44a1.78,1.78,0,0,0,.33-.09l.09,0a.85.85,0,0,1,.81.13l.09.06c.5.23.9-.47,1.93.38a2.21,2.21,0,0,1,.71,1.13l0,.16a1.68,1.68,0,0,1,.23.22c.36.31.19.49.62.73s1,.54,1,.54c-.16,1.06.18.66.2,1.29a1,1,0,0,1-.06.34l0,.12a1.84,1.84,0,0,0-.08.53,2,2,0,0,0-.47.59.62.62,0,0,0,.65-.17l-.13-.44c.15-.1.37-.2.32-.41l0-.15A4.76,4.76,0,0,1,61.2,36,5.2,5.2,0,0,0,62,37.76l.07,1-.2-.09.17.24L61.9,39c0,.07-.07.16-.1.25a.65.65,0,0,0,.59,0l-.07-.2.07-.12,0-.1a1.32,1.32,0,0,0-.08-.22l-.08-.21a4.69,4.69,0,0,1-.19-1.18c0-.37-.18-1.19-.18-1.19s1-.09,1.52-.1,1.91,0,1.91,0l-.34.23c.35-.09.88-.46,1.35-.61A8.1,8.1,0,0,1,68,35.24a2,2,0,0,0,.33,1.23,2.66,2.66,0,0,1,.06,2.58l.26,0a9.1,9.1,0,0,1,.52-1.88c0-.07-.12-1.09-.13-1.14l.41-.12s.12.29.26.68A4.93,4.93,0,0,1,70,39.15l.11.12.19,0,.07,0,0-.14a4.19,4.19,0,0,1-.11-1.37A2.24,2.24,0,0,0,70,36.14a2.29,2.29,0,0,1,.16-2.29,2.59,2.59,0,0,1-.87.45,3.53,3.53,0,0,1-2.57-.86h-.1l-.07,0-.1,0c-.44.15-.69-.18-.74-.57,0-.2,0-.21-.11-.3l-.44-.3.72,0a1.61,1.61,0,0,1,1.06.42s1.48,1.08,2.34.77a2.44,2.44,0,0,0,1.25-1.26l.06-.1a.13.13,0,0,1,0,.1l.35-.13a.29.29,0,0,1,0,.21l-.06.11A4,4,0,0,1,70.05,33.46Zm-2.89-.18a2.9,2.9,0,0,0,2.06.64,1.56,1.56,0,0,0,.52-.24,2.16,2.16,0,0,1-2.09-.13A4.31,4.31,0,0,1,67.16,33.28Zm-.71-.19a1.46,1.46,0,0,1,.36,0L66.72,33a2.93,2.93,0,0,0-.26-.17,1.24,1.24,0,0,0-.3-.16h-.08l0,.22c0,.13.05.32.23.25Z"/>
            </g>
            <g>
              <polygon class="cls-1" points="63.57 2.49 64.25 3.48 66.25 3.11 66.14 3.7 66.61 3.61 66.26 5.44 67.59 6.35 67.44 6.45 67.92 6.78 66.23 7.94 66.61 9.95 64.6 9.57 63.44 11.26 63.11 10.78 63.01 10.92 62.11 9.61 60.26 9.95 60.37 9.47 59.78 9.58 60.15 7.59 59.15 6.91 58.44 6.35 60.16 5.17 59.78 3.11 61.83 3.49 63.01 1.77 63.53 2.52 63.57 2.49"/>
              <path class="cls-5" d="M62.17,3.75l.75,1.8h.22l.72-1.8L63,2.52Zm.36,2-.75-1.8L60.3,3.64l.28,1.47,1.8.75A.54.54,0,0,1,62.53,5.71Zm-.33.53L60.42,5.5l-1.24.85,1.24.84,1.77-.73V6.39A.76.76,0,0,1,62.2,6.24Zm.13.62-1.75.72L60.3,9.05l1.48-.27.73-1.73A.81.81,0,0,1,62.33,6.86Zm.57.36-.73,1.72L63,10.17l.85-1.23-.69-1.72H62.9Zm.65-.17.7,1.73,1.47.27-.28-1.47-1.71-.72A1.07,1.07,0,0,1,63.55,7.05Zm.32-.6,1.74.74,1.23-.84L65.61,5.5l-1.75.73a.81.81,0,0,1,0,.16Zm-.19-.61,1.76-.73.28-1.47-1.47.27-.72,1.8A.93.93,0,0,1,63.68,5.84Zm-.65,0a.52.52,0,0,0-.52.53.52.52,0,0,0,.52.52.52.52,0,0,0,.53-.52A.53.53,0,0,0,63,5.86Z"/>
            </g>
            <path class="cls-1" d="M81.48,39.52a6.57,6.57,0,0,1-1.57,3.41,7.45,7.45,0,0,1-4.52,2.3h-7a6.65,6.65,0,0,0-2.44.48,6.63,6.63,0,0,0-2,2.43c-.18-.28-.39-.61-.63-.93l-.2.36a12.42,12.42,0,0,0-1.32-1.88A7.53,7.53,0,0,0,59,45.24H53.43a6.57,6.57,0,0,1-5.18-1.88,6,6,0,0,1-1.2-1c-1.85-2.06-1.77-3.38-1.73-3.64V4.31a3.86,3.86,0,0,0-1.58-2.95l-.29,0A6.25,6.25,0,0,0,40.77,3a6.23,6.23,0,0,0-.71,2.54V39.66s0,1.26-1.76,3.31A7.31,7.31,0,0,1,34,45.24H27.11a7.1,7.1,0,0,0-2.46.44,6.87,6.87,0,0,0-2.17,2.42c-.17-.29-.38-.62-.61-1l-.21.34a12.44,12.44,0,0,0-1.16-1.74l-.13-.07a6.93,6.93,0,0,0-2.61-.44H12A7.62,7.62,0,0,1,10.14,45a6.9,6.9,0,0,1-3.47-1.93,6.14,6.14,0,0,1-.94-.82c-1.81-1.93-1.83-3.35-1.82-3.58V4.3C3.59,2.18,3,1.39.91.61L1,0H83.58l0,.13,1.1,1.13A6.6,6.6,0,0,0,82.27,3a7,7,0,0,0-.8,2.53v34ZM80.16,12.46H45.94l0,26.25a1.17,1.17,0,0,0,0,.2,5.66,5.66,0,0,0,1.58,3,6.1,6.1,0,0,0,4.55,2,3.72,3.72,0,0,0,.5,0h5.61s.51,0,1.14.06c2,.2,2.64.87,3.74,2.43a4.46,4.46,0,0,1,4.47-2.49h7A6.41,6.41,0,0,0,80,39.52a4.73,4.73,0,0,0,.21-.9ZM43.74.65a4.28,4.28,0,0,1,2.2,3.61v7.57H80.16V4.58a8.42,8.42,0,0,1,.19-1,4.26,4.26,0,0,1,2-2.9ZM2.4.64A4.24,4.24,0,0,1,4.55,4.25V38.69s0,.08,0,.2a5.89,5.89,0,0,0,1.64,2.94,7,7,0,0,0,5,2h5.74s.46,0,1,0c1.91.18,2.66.84,3.71,2.39a4.69,4.69,0,0,1,4.62-2.43h6.85a7,7,0,0,0,5.43-4.38,2.25,2.25,0,0,0,.19-.73V4.58a9.23,9.23,0,0,1,.14-1A3.48,3.48,0,0,1,41,.64H31.55v33a6.32,6.32,0,0,1-.12.73,2.89,2.89,0,0,1-2.29,2.33H14.58a6.66,6.66,0,0,1-.78-.29,3,3,0,0,1-2-2.76V.64Z"/>
            <path class="cls-2" d="M12.48,33.59a2.56,2.56,0,0,0,2.19,2.46h7V17.89H12.48Z"/>
            <g>
              <path class="cls-1" d="M20.53,25.17a.56.56,0,0,1-.08.65l.08.87-.53.08H19l-.38,0-.53-.07.06-.29-.54-.06.15-.88a.56.56,0,0,1-.13-.5l0-.08a1.37,1.37,0,0,1-.26-.69.54.54,0,0,1,.09-.31c-.13-.91-.35-2.71-.35-2.71l.51.11.37-.26.28.14.3-.18.31.16.33-.17.32.19L19.9,21l.37.25.54-.11-.1.57.45-.1-.44,2.57,0,.08a.84.84,0,0,1-.15.76Z"/>
              <path class="cls-6" d="M18,24.54h1.8l.06-.09a.44.44,0,0,0,0-.58l.37-2.17-.12,0-.33-.22-.29.11-.3-.17L19,21.6l-.31-.15-.29.17-.26-.12-.32.22-.12,0c.06.48.19,1.46.3,2.09,0,.22-.11.27-.11.4A.49.49,0,0,0,18,24.54Zm1.63,1.05H18.2l-.07.39.14,0h1.28l.16,0ZM18.09,25c0,.1,0,.14,0,.21h1.65a.23.23,0,0,0,0-.21H18.09Z"/>
            </g>
            <g>
              <path class="cls-1" d="M18.42,32.2a.58.58,0,0,1-.09.66l.08.87-.52.08H16.54L16,33.73l.06-.29-.53-.07.15-.88a.52.52,0,0,1-.13-.49l0-.09a1.25,1.25,0,0,1-.26-.68.7.7,0,0,1,.08-.32c-.13-.91-.35-2.71-.35-2.71l.52.12.36-.26.28.13.3-.17.32.15.32-.17.33.19.31-.12.37.25.53-.12-.1.57.45-.1-.43,2.58,0,.08a.81.81,0,0,1-.14.76Z"/>
              <path class="cls-6" d="M15.92,31.58h1.79l.07-.09a.46.46,0,0,0,0-.59l.37-2.17-.11,0-.33-.23-.29.12-.31-.17-.3.16-.31-.15-.3.17L16,28.53l-.32.23-.11,0c.06.48.18,1.46.29,2.1,0,.21-.1.27-.1.4A.49.49,0,0,0,15.92,31.58Zm1.63,1.05H16.09L16,33h.13l.37,0h.91l.17,0ZM16,32c0,.09,0,.14,0,.21h1.64a.2.2,0,0,0,.05-.22H16Z"/>
            </g>
            <g>
              <path class="cls-1" d="M69.55,25.59a2.33,2.33,0,0,0-.15.68l.13-.05A3.71,3.71,0,0,1,69.55,25.59ZM70.88,27l.06.21a2.34,2.34,0,0,1-.15.2,1,1,0,0,1-.89.3,2.2,2.2,0,0,1-.76-.43l.09,0L69,27.07c-.34.22-1,0-1.34-.15l.16-.19a4.29,4.29,0,0,1-.62-.19s.18-.28.24-.36a1.23,1.23,0,0,1,.55-.46l.09-.16a2,2,0,0,0-.12-1.85,1.44,1.44,0,0,1-.3-.59,5.44,5.44,0,0,0-2,.71,1,1,0,0,1-.76.08l-.07,0a.24.24,0,0,1-.15-.22c-.67,0-1.33,0-2,.08,0,.2.08.55.12.8a4.51,4.51,0,0,0,.17,1.1l.08.2a.65.65,0,0,1,0,.62l0,.12c.07.39-.43.49-.72.49a1.43,1.43,0,0,1-.68-.29l0-.13-.19-.07a3.35,3.35,0,0,1-.31-.18,2.74,2.74,0,0,1,.07-.27,1.53,1.53,0,0,1,.23-.44v-.79l-.09-.12-.08-.11a2.26,2.26,0,0,0-.21,1.14l0,.15a.54.54,0,0,1-.22.63l.1.43s-.13.13-.22.2a1.27,1.27,0,0,1-1.29.13,1,1,0,0,1,0-.17.3.3,0,0,1,0-.1,3,3,0,0,1-.52-.13,2.37,2.37,0,0,1,.1-.37,1.92,1.92,0,0,1,.42-.64l.07-.07a2.43,2.43,0,0,1,.08-.47c.21-.61-.21-.55-.15-1.33-.37-.26-1-.53-1.19-.92a1.65,1.65,0,0,0-.24-.33l0-.08c-.21-.15-.24-.09-.29-.39l0-.15a1.57,1.57,0,0,0-.31-.6c-.7-.54-1.06.05-1.66-.23l-.09,0a.54.54,0,0,0-.51-.14l-.1.05c-.4.16-1,.21-1.19-.26a.82.82,0,0,1-.46-.4.65.65,0,0,1,.1-.77l.08-.07c.26-.24.14-.72.61-1.15s.17-.53.5-.86a3,3,0,0,1-.92-.75l.27-.33s.17.1.39.2a1.22,1.22,0,0,0,.73.14l.12-.05a.74.74,0,0,1,.6,0l.08.05.1.07c.2.11.36-.2.85,0a.28.28,0,0,0,.13,0c.17,0,.79-.12,1.31-.12s.93.14,1.53.16.86,0,1.41,0c1.06,0,1.65.18,2.72.17,1.54,0,2.39-.43,3.93-.4,1.07,0,2.74-.11,3.24.95A1.2,1.2,0,0,1,71.82,19a2.71,2.71,0,0,1-.49,1.83,2.45,2.45,0,0,0-.59,2.59,2.47,2.47,0,0,1,.19,1.76A8.08,8.08,0,0,0,71,26.24l0,.12,0,.14C71.15,26.73,71.14,26.87,70.88,27Z"/>
              <path class="cls-4" d="M68.33,26.07l-.21.05a.66.66,0,0,0-.27.2C68.35,26.44,68.44,26.48,68.33,26.07Zm1.73.36-.5.25a1,1,0,0,0-.19.15l.18.06a.59.59,0,0,0,.59-.21Zm0-6a3.1,3.1,0,0,0,.91-1l0-.08c.16-.64.08-1.41-.42-1.66a5.63,5.63,0,0,0-2.48-.31c-1.54,0-2.39.39-3.93.4-1.07,0-1.66-.16-2.73-.17-.55,0-.87,0-1.42,0s-.92-.17-1.51-.17-1.14.13-1.31.13-.34-.2-.6-.09a.57.57,0,0,1-.54,0L56,17.43l-.11-.08a.3.3,0,0,0-.28,0l-.14,0-.18,0,.45.2c-.5.33-.58.28-.75.8s-.48.48-.6.92a1.51,1.51,0,0,1-.33.7l-.09.07c-.21.21.15.49.39.44a1.78,1.78,0,0,0,.33-.09l.09,0a.85.85,0,0,1,.81.13l.09.06c.5.23.9-.47,1.93.39a2.15,2.15,0,0,1,.71,1.12l0,.16a1.68,1.68,0,0,1,.23.22c.36.31.19.49.62.73s1,.54,1,.54c-.16,1.06.18.66.2,1.29a1,1,0,0,1-.06.34l0,.12a1.89,1.89,0,0,0-.08.53,2,2,0,0,0-.47.59.62.62,0,0,0,.65-.17l-.13-.44c.15-.1.37-.2.32-.41l0-.15A4.78,4.78,0,0,1,61.2,23,5.11,5.11,0,0,0,62,24.75l.07,1-.2-.09.17.24L61.9,26c0,.07-.07.16-.1.25a.59.59,0,0,0,.59,0l-.07-.2.07-.12,0-.1a.93.93,0,0,0-.08-.21l-.08-.22a4.69,4.69,0,0,1-.19-1.18c0-.38-.18-1.19-.18-1.19s1-.09,1.52-.1,1.91,0,1.91,0l-.34.23c.35-.09.88-.46,1.35-.61A8.1,8.1,0,0,1,68,22.23a2,2,0,0,0,.33,1.23A2.66,2.66,0,0,1,68.34,26l.26,0a9.1,9.1,0,0,1,.52-1.88C69.14,24.06,69,23,69,23l.41-.12s.12.29.26.68A4.94,4.94,0,0,1,70,26.14l.11.12.19,0,.07,0,0-.14a4.19,4.19,0,0,1-.11-1.37A2.24,2.24,0,0,0,70,23.13a2.29,2.29,0,0,1,.16-2.29,2.59,2.59,0,0,1-.87.45,3.53,3.53,0,0,1-2.57-.86h-.1l-.07,0-.1,0c-.44.15-.69-.18-.74-.57,0-.2,0-.21-.11-.3l-.44-.3.72,0a1.61,1.61,0,0,1,1.06.42s1.48,1.08,2.34.77a2.44,2.44,0,0,0,1.25-1.26l.06-.1a.13.13,0,0,1,0,.1l.35-.12a.27.27,0,0,1,0,.2l-.06.11A4,4,0,0,1,70.05,20.45Zm-2.89-.18a2.9,2.9,0,0,0,2.06.64,1.56,1.56,0,0,0,.52-.24,2.16,2.16,0,0,1-2.09-.13A4.31,4.31,0,0,1,67.16,20.27Zm-.71-.19a1.46,1.46,0,0,1,.36,0L66.72,20a2.93,2.93,0,0,0-.26-.17,1.73,1.73,0,0,0-.3-.16h-.08l0,.22c0,.13.05.32.23.25Z"/>
            </g>
            <g>
              <path class="cls-1" d="M29.21,38.32l.26,0,.29,1.19.24.26.08.09.15.22.15.17.07.08c.45.58.3,1-.21,1.42-.1.88-.51,1.11-1.37,1a1.47,1.47,0,0,1-.89.49,1.47,1.47,0,0,1-.89-.49c-.53.12-1,.13-1.23-.36-.36-.11-.56-.43-.63-1l-.13-.08c-.58-.42-.41-1.08,0-1.56l.57-.62L26,37.84l.85,0a.89.89,0,0,1,1.32,0l.91.06Z"/>
              <path class="cls-5" d="M27.93,38.12,27.77,38a.39.39,0,0,0-.35-.06l-.39.27c-.11.09-.12.24-.2.32s-.38-.07-.31-.3h-.17l-.27,1.11-.64.7c-.28.3-.47.67-.07.94l.6-.88.35.23-.67,1c.07.66.24.78.89.64l.24-1.5.42.06L27,42.09a1.11,1.11,0,0,0,.6.37,1.12,1.12,0,0,0,.61-.36l-.33-1.58.42-.09L28.58,42c.62.05.79,0,.87-.67l-.72-1,.34-.25.64.84c.3-.29.3-.53,0-.86L29,39.36l-.27-1.11h-.19l-.37.21a.56.56,0,0,0-.18-.27Z"/>
            </g>
            <g>
              <path class="cls-1" d="M16.3,25.17a.56.56,0,0,1-.08.65l.08.87-.53.08h-1l-.38,0-.53-.07L14,26.4l-.54-.06.16-.88a.54.54,0,0,1-.14-.5l0-.08a1.37,1.37,0,0,1-.26-.69.54.54,0,0,1,.09-.31c-.14-.91-.35-2.71-.35-2.71l.51.11.37-.26.28.14.3-.18.31.16L15,21l.32.19.31-.13.37.25.54-.11-.1.57.45-.1-.44,2.57,0,.08a.81.81,0,0,1-.14.76Z"/>
              <path class="cls-6" d="M13.8,24.54h1.8l.06-.09a.44.44,0,0,0,0-.58l.37-2.17-.11,0-.34-.22-.29.11-.3-.17-.31.16-.31-.15-.29.17-.27-.12-.31.22-.12,0c.06.48.19,1.46.3,2.09,0,.22-.11.27-.11.4A.49.49,0,0,0,13.8,24.54Zm1.63,1.05H14l-.06.39L14,26h1.28l.16,0ZM13.86,25c0,.1,0,.14,0,.21h1.65a.23.23,0,0,0,.05-.21H13.86Z"/>
            </g>
            <g>
              <path class="cls-1" d="M17.48,38.32l.26,0L18,39.53l.24.26.07.09a2.17,2.17,0,0,1,.15.22l.15.17.08.08c.45.58.3,1-.22,1.42-.1.88-.5,1.11-1.36,1a1.47,1.47,0,0,1-.89.49,1.47,1.47,0,0,1-.89-.49c-.53.12-1,.13-1.23-.36-.37-.11-.56-.43-.63-1l-.13-.08c-.58-.42-.41-1.08,0-1.56l.57-.62.31-1.31.86,0a.89.89,0,0,1,1.32,0l.91.06Z"/>
              <path class="cls-5" d="M16.2,38.12,16,38a.39.39,0,0,0-.35-.06l-.39.27c-.12.09-.12.24-.2.32s-.38-.07-.32-.3h-.16l-.27,1.11-.64.7c-.28.3-.47.67-.07.94l.6-.88.35.23-.67,1c.07.66.24.78.89.64l.24-1.5.42.06-.25,1.55a1.18,1.18,0,0,0,.61.37,1.16,1.16,0,0,0,.61-.36l-.33-1.58.41-.09L16.84,42c.63.05.8,0,.88-.67l-.72-1,.34-.25.63.84c.31-.29.31-.53,0-.86l-.66-.72L17,38.25h-.19l-.37.21a.58.58,0,0,0-.19-.27Z"/>
            </g>
            <g>
              <path class="cls-1" d="M36.88,32.1h.26l.29,1.2.24.26.07.09a2.17,2.17,0,0,1,.15.22l.15.17.08.08c.45.58.3,1-.21,1.42-.11.88-.51,1.11-1.37,1a1.47,1.47,0,0,1-.89.49,1.47,1.47,0,0,1-.89-.49c-.53.12-1,.13-1.23-.37-.36-.1-.56-.42-.63-1l-.13-.08c-.58-.42-.41-1.09,0-1.55l.57-.63.32-1.31.85,0a.88.88,0,0,1,1.32,0l.91.06Z"/>
              <path class="cls-5" d="M35.6,31.9l-.16-.11a.39.39,0,0,0-.35-.06L34.7,32c-.11.09-.12.24-.2.31s-.38-.06-.31-.29H34l-.27,1.1-.64.71c-.28.3-.47.66-.07.94l.6-.89.35.24-.67,1c.07.66.24.78.89.64l.24-1.5.42.06-.25,1.56a1.23,1.23,0,0,0,.61.36,1.16,1.16,0,0,0,.61-.36l-.33-1.58.42-.09.32,1.55c.62.05.79,0,.87-.67l-.72-1,.34-.25.64.84c.3-.29.3-.53,0-.86l-.66-.72L36.43,32h-.19l-.37.21a.56.56,0,0,0-.18-.27Z"/>
            </g>
            <g>
              <polygon class="cls-1" points="74.58 2.49 75.26 3.48 77.26 3.11 77.15 3.7 77.62 3.61 77.27 5.44 78.6 6.35 78.45 6.45 78.93 6.78 77.25 7.94 77.62 9.95 75.61 9.57 74.45 11.26 74.12 10.78 74.02 10.92 73.12 9.61 71.27 9.95 71.38 9.47 70.79 9.58 71.16 7.59 70.16 6.91 69.45 6.35 71.17 5.17 70.79 3.11 72.84 3.49 74.02 1.77 74.53 2.52 74.58 2.49"/>
              <path class="cls-5" d="M73.18,3.75l.75,1.8h.22l.72-1.8L74,2.52Zm.36,2-.75-1.8-1.47-.27.27,1.47,1.8.75A.54.54,0,0,1,73.54,5.71Zm-.33.53L71.43,5.5l-1.24.85,1.24.84,1.77-.73V6.39A.76.76,0,0,1,73.21,6.24Zm.13.62-1.75.72-.27,1.47,1.47-.27.73-1.73A.81.81,0,0,1,73.34,6.86Zm.57.36-.73,1.72L74,10.17l.85-1.23-.69-1.72h-.27Zm.65-.17.7,1.73,1.47.27-.28-1.47-1.71-.72A1.07,1.07,0,0,1,74.56,7.05Zm.32-.6,1.74.74,1.23-.84L76.62,5.5l-1.75.73a.81.81,0,0,1,0,.16Zm-.2-.61,1.77-.73.28-1.47-1.47.27-.72,1.8A.58.58,0,0,1,74.68,5.84Zm-.64,0a.52.52,0,0,0-.52.53.52.52,0,0,0,1,0A.52.52,0,0,0,74,5.86Z"/>
            </g>
            <g>
              <path class="cls-1" d="M36.88,22.85l.26,0,.29,1.19.24.26.07.09a2.17,2.17,0,0,1,.15.22l.15.17.08.08c.45.58.3,1-.21,1.42-.11.88-.51,1.11-1.37,1a1.47,1.47,0,0,1-.89.49,1.47,1.47,0,0,1-.89-.49c-.53.12-1,.13-1.23-.37-.36-.1-.56-.42-.63-1l-.13-.08c-.58-.42-.41-1.08,0-1.55l.57-.63.32-1.31.85,0a.89.89,0,0,1,1.32,0l.91.06Z"/>
              <path class="cls-5" d="M35.6,22.65l-.16-.11a.39.39,0,0,0-.35-.06l-.39.27c-.11.09-.12.24-.2.32s-.38-.07-.31-.3H34l-.27,1.11-.64.7c-.28.3-.47.67-.07.94l.6-.89.35.24-.67,1c.07.66.24.78.89.64l.24-1.5.42.06-.25,1.55a1.18,1.18,0,0,0,.61.37,1.16,1.16,0,0,0,.61-.36l-.33-1.58.42-.09.32,1.55c.62,0,.79-.05.87-.67l-.72-1,.34-.25.64.84c.3-.29.3-.53,0-.86l-.66-.72-.27-1.11h-.19l-.37.21a.56.56,0,0,0-.18-.27Z"/>
            </g>
            <g>
              <path class="cls-1" d="M36.88,13.6l.26,0,.29,1.19.24.26.07.09a2.17,2.17,0,0,1,.15.22l.15.17.08.08c.45.58.3,1-.21,1.42-.11.88-.51,1.11-1.37,1a1.47,1.47,0,0,1-.89.49,1.47,1.47,0,0,1-.89-.49c-.53.12-1,.13-1.23-.37-.36-.1-.56-.42-.63-1l-.13-.08c-.58-.42-.41-1.08,0-1.55l.57-.63.32-1.31.85,0a.89.89,0,0,1,1.32,0l.91.06Z"/>
              <path class="cls-5" d="M35.6,13.4l-.16-.11a.39.39,0,0,0-.35-.06l-.39.27c-.11.09-.12.24-.2.32s-.38-.07-.31-.3H34l-.27,1.11-.64.7c-.28.3-.47.67-.07.94l.6-.89.35.24-.67,1c.07.66.24.78.89.64l.24-1.5.42.06-.25,1.56a1.23,1.23,0,0,0,.61.36,1.16,1.16,0,0,0,.61-.36l-.33-1.58.42-.09.32,1.55c.62,0,.79-.05.87-.67l-.72-1,.34-.25.64.84c.3-.29.3-.53,0-.86l-.66-.72-.27-1.11h-.19l-.37.21a.49.49,0,0,0-.18-.26Z"/>
            </g>
            <g>
              <path class="cls-1" d="M36.88,4.35l.26,0,.29,1.19.24.26.07.09a2.17,2.17,0,0,1,.15.22L38,6.3l.08.08c.45.58.3,1-.21,1.42-.11.88-.51,1.11-1.37,1a1.47,1.47,0,0,1-.89.49,1.47,1.47,0,0,1-.89-.49c-.53.12-1,.13-1.23-.36-.36-.11-.56-.43-.63-1l-.13-.08c-.58-.42-.41-1.08,0-1.55l.57-.63.32-1.31.85,0a.89.89,0,0,1,1.32,0l.91.06Z"/>
              <path class="cls-5" d="M35.6,4.15,35.44,4A.39.39,0,0,0,35.09,4l-.39.27c-.11.09-.12.24-.2.32s-.38-.07-.31-.3H34l-.27,1.11-.64.7c-.28.3-.47.67-.07.94l.6-.89.35.24-.67,1c.07.65.24.77.89.63l.24-1.5.42.06-.25,1.56a1.23,1.23,0,0,0,.61.36,1.16,1.16,0,0,0,.61-.36l-.33-1.58.42-.09L36.25,8c.62.05.79,0,.87-.67l-.72-1,.34-.25.64.84c.3-.29.3-.53,0-.86l-.66-.72-.27-1.11h-.19l-.37.21a.49.49,0,0,0-.18-.26Z"/>
            </g>
            <g>
              <polygon class="cls-1" points="52.56 2.49 53.24 3.48 55.24 3.11 55.13 3.7 55.6 3.61 55.25 5.44 56.58 6.35 56.43 6.45 56.91 6.78 55.23 7.94 55.6 9.95 53.59 9.57 52.43 11.26 52.1 10.78 52 10.92 51.1 9.61 49.25 9.95 49.36 9.47 48.77 9.58 49.14 7.59 48.14 6.91 47.43 6.35 49.15 5.17 48.77 3.11 50.82 3.49 52 1.77 52.52 2.52 52.56 2.49"/>
              <path class="cls-5" d="M51.16,3.75l.75,1.8h.22l.72-1.8L52,2.52Zm.36,2-.76-1.8L49.3,3.64l.27,1.47,1.8.75A.54.54,0,0,1,51.52,5.71Zm-.33.53L49.41,5.5l-1.24.85,1.24.84,1.77-.73V6.39A.76.76,0,0,1,51.19,6.24Zm.14.62-1.76.72L49.3,9.05l1.47-.27.73-1.73A.61.61,0,0,1,51.33,6.86Zm.56.36-.73,1.72L52,10.17l.85-1.23-.69-1.72h-.27Zm.65-.17.7,1.73,1.47.27-.28-1.47-1.71-.72A1.07,1.07,0,0,1,52.54,7.05Zm.32-.6,1.74.74,1.23-.84L54.6,5.5l-1.75.73a.81.81,0,0,1,0,.16Zm-.2-.61,1.77-.73.28-1.47-1.47.27-.72,1.8A.86.86,0,0,1,52.66,5.84Zm-.64,0a.52.52,0,0,0-.52.53.52.52,0,0,0,.52.52.52.52,0,0,0,.53-.52A.53.53,0,0,0,52,5.86Z"/>
            </g>
            <g>
              <path class="cls-1" d="M9.81,32.1h.26l.29,1.2.24.26.07.09a2.17,2.17,0,0,1,.15.22l.15.17.08.08c.45.58.3,1-.22,1.42-.1.88-.5,1.11-1.36,1a1.47,1.47,0,0,1-.89.49,1.47,1.47,0,0,1-.89-.49c-.53.12-1,.13-1.23-.37-.37-.1-.56-.42-.63-1l-.13-.08c-.58-.42-.41-1.09,0-1.55l.57-.63.32-1.31.85,0a.88.88,0,0,1,1.32,0l.91.06Z"/>
              <path class="cls-5" d="M8.53,31.9l-.16-.11A.39.39,0,0,0,8,31.73L7.63,32c-.11.09-.12.24-.2.31s-.38-.06-.31-.29H7l-.27,1.1L6,33.84c-.28.3-.47.66-.07.94l.6-.89.35.24-.67,1c.07.66.24.78.89.64l.24-1.5.42.06-.25,1.56a1.23,1.23,0,0,0,.61.36,1.16,1.16,0,0,0,.61-.36L8.44,34.3l.41-.09.33,1.55c.61.05.79,0,.87-.67l-.72-1,.34-.25.63.84c.31-.29.31-.53,0-.86l-.66-.72L9.36,32H9.17l-.37.21A.58.58,0,0,0,8.61,32Z"/>
            </g>
            <g>
              <path class="cls-1" d="M9.81,22.85l.26,0,.29,1.19.24.26.07.09a2.17,2.17,0,0,1,.15.22l.15.17.08.08c.45.58.3,1-.22,1.42-.1.88-.5,1.11-1.36,1a1.47,1.47,0,0,1-.89.49,1.47,1.47,0,0,1-.89-.49c-.53.12-1,.13-1.23-.37-.37-.1-.56-.42-.63-1l-.13-.08c-.58-.42-.41-1.08,0-1.55l.57-.63.32-1.31.85,0a.89.89,0,0,1,1.32,0l.91.06Z"/>
              <path class="cls-5" d="M8.53,22.65l-.16-.11A.39.39,0,0,0,8,22.48l-.39.27c-.11.09-.12.24-.2.32s-.38-.07-.31-.3H7l-.27,1.11-.64.7c-.28.3-.47.67-.07.94l.6-.89.35.24-.67,1c.07.66.24.78.89.64L7.38,25l.42.06-.25,1.55a1.18,1.18,0,0,0,.61.37,1.16,1.16,0,0,0,.61-.36l-.33-1.58L8.85,25l.33,1.55c.61,0,.79-.05.87-.67l-.72-1,.34-.25.63.84c.31-.29.31-.53,0-.86l-.66-.72-.27-1.11H9.17L8.8,23a.58.58,0,0,0-.19-.27Z"/>
            </g>
            <g>
              <path class="cls-1" d="M9.81,13.6l.26,0,.29,1.19.24.26.07.09a2.17,2.17,0,0,1,.15.22l.15.17.08.08c.45.58.3,1-.22,1.42-.1.88-.5,1.11-1.36,1a1.47,1.47,0,0,1-.89.49,1.47,1.47,0,0,1-.89-.49c-.53.12-1,.13-1.23-.37-.37-.1-.56-.42-.63-1l-.13-.08c-.58-.42-.41-1.08,0-1.55l.57-.63.32-1.31.85,0a.89.89,0,0,1,1.32,0l.91.06Z"/>
              <path class="cls-5" d="M8.53,13.4l-.16-.11A.39.39,0,0,0,8,13.23l-.39.27c-.11.09-.12.24-.2.32s-.38-.07-.31-.3H7l-.27,1.11-.64.7c-.28.3-.47.67-.07.94l.6-.89.35.24-.67,1c.07.66.24.78.89.64l.24-1.5.42.06-.25,1.56a1.23,1.23,0,0,0,.61.36,1.16,1.16,0,0,0,.61-.36L8.44,15.8l.41-.09.33,1.55c.61,0,.79-.05.87-.67l-.72-1,.34-.25.63.84c.31-.29.31-.53,0-.86l-.66-.72-.27-1.11H9.17l-.37.21a.51.51,0,0,0-.19-.26Z"/>
            </g>
            <g>
              <path class="cls-1" d="M9.81,4.35l.26,0,.29,1.19.24.26.07.09a2.17,2.17,0,0,1,.15.22L11,6.3l.08.08c.45.58.3,1-.22,1.42-.1.88-.5,1.11-1.36,1a1.47,1.47,0,0,1-.89.49,1.47,1.47,0,0,1-.89-.49c-.53.12-1,.13-1.23-.36-.37-.11-.56-.43-.63-1L5.7,7.36c-.58-.42-.41-1.08,0-1.55l.57-.63.32-1.31.85,0a.89.89,0,0,1,1.32,0l.91.06Z"/>
              <path class="cls-5" d="M8.53,4.15,8.37,4A.39.39,0,0,0,8,4l-.39.27c-.11.09-.12.24-.2.32s-.38-.07-.31-.3H7L6.68,5.39,6,6.09c-.28.3-.47.67-.07.94l.6-.89.35.24-.67,1c.07.65.24.77.89.63l.24-1.5.42.06L7.55,8.13a1.23,1.23,0,0,0,.61.36,1.16,1.16,0,0,0,.61-.36L8.44,6.55l.41-.09L9.18,8c.61.05.79,0,.87-.67l-.72-1,.34-.25L10.3,7c.31-.29.31-.53,0-.86l-.66-.72L9.36,4.28H9.17l-.37.21a.51.51,0,0,0-.19-.26Z"/>
            </g>
            <polygon class="cls-4" points="30.91 0.64 27.69 0.64 21.7 6.64 15.7 0.64 12.48 0.64 12.48 3.85 17.58 8.97 12.48 14.05 12.48 17.26 15.67 17.26 21.7 11.26 27.72 17.26 30.91 17.26 30.91 14.07 25.79 8.97 30.91 3.86 30.91 0.64"/>
            <path class="cls-2" d="M22.27,36.05H29a2.33,2.33,0,0,0,1.88-2.45V17.89H22.27Z"/>
            <g>
              <path class="cls-1" d="M24.38,26.33A.67.67,0,0,1,24,26,.36.36,0,0,1,24,26c-.54-.2-.7-.74-.37-1.35-.85-.59-.93-1.19-.13-1.89a1.23,1.23,0,0,1,.62-2c-.1-1,.61-1.36,1.51-1.19a1.39,1.39,0,0,1,2.24,0c.61-.3,1.16-.11,1.29.42a.31.31,0,0,1,.1.05.68.68,0,0,1,.31.61,1,1,0,0,1,.44.53,1,1,0,0,1,.39.52,1.4,1.4,0,0,1-.31,1.19A1.48,1.48,0,0,1,30.61,24c-.08.42-.27.9-.73,1,.38.68.23,1.45-.64,1.56H29c0,1-.47,1.24-1.35.88a20.18,20.18,0,0,0,.08,3,2.44,2.44,0,0,0,.4,1.15,6.78,6.78,0,0,0,.77.7l1.14.84-.07.14.45.34-.14.28s-.82-.24-1.32-.45A3.53,3.53,0,0,1,28.1,33L28,33c0,.06,0,.1.06.15l.33,1-.27.16-.4-.43s-.46-.4-.72-.69a1.13,1.13,0,0,1-.15-.21A10.3,10.3,0,0,0,26,34a11.65,11.65,0,0,1-1.27,1.26l-.24-.19.34-.65-.47.45L24,34.6l.42-.79s.24-.39.32-.54a11.39,11.39,0,0,1-1.37.49l-.13-.29L24,33c-.31.12-.63.23-1,.33L22.84,33l.9-.56a7,7,0,0,0,.71-.46c1.47-1.07,1.22-1.58,1.39-3.15,0-.35.06-.79.07-1.17-.42.08-.85.06-1-.37C24.55,27.19,24.35,26.89,24.38,26.33Z"/>
              <path class="cls-6" d="M25.08,33.59c.29-.29,1.05-1.52,1.4-1.59s.65.6.89.88l0-.09a.36.36,0,0,1,0-.15c-.06-.44.28-.56.62-.32a4.63,4.63,0,0,0,.7.36s-.28-.22-.57-.48C26.81,31,27,30.44,26.83,28.89a22.71,22.71,0,0,1,0-2.46c1.06.57,1.45.64,1.27-.7.26,0,.95.11,1.1-.18.31-.62-.35-1.17-.69-1.53l.76.19c.59,0,.81-1.09,0-1.67l-.19-.14c.27-.29.62-.71.5-1.15s-.63-.51-1-.56c.06-.2.25-.73,0-.89s-.75.12-1,.31l-.1-.37c-.27-.62-1.33-.5-1.64.08l-.08.15c-.25-.07-.88-.22-1.09,0s-.19.78-.08,1.15c-.41,0-.87-.1-1,.48-.18.73.11.84.65,1.05-1.07.74-1.38,1.08-.06,1.82-.77,1-.23,1.23.77,1.12-.09.27-.32,1-.1,1.22s1.19-.21,1.45-.35c0,0,0,1.62-.08,2.41-.17,1.59,0,2.21-1.41,3.34.2-.1.74-.41,1-.19s-.46,1.05-.63,1.41Z"/>
            </g>
            <path class="cls-5" d="M22,12.12l-5.22,5.14H27.12Zm-9.48,1.33L17,9l-4.5-4.52ZM30.91,5,26.64,9.23l4.27,4.25ZM27.09.64H16.29L21.7,6Z"/>
          </g>
          <g>
            <path class="cls-1" d="M45.23,54.69H40.15v2.57a2,2,0,0,1,0,.23,1,1,0,0,1-.93.78h-33v2.52a1,1,0,0,1-1,1H1v-.59H0v-8H3.76V50.87A1.33,1.33,0,0,1,4.09,50a1.26,1.26,0,0,1,.73-.33H37.76V47.27a1.15,1.15,0,0,1,.89-1.11l.19,0h7a1.15,1.15,0,0,1,1.06.95,1,1,0,0,1,.71,1v1.66H79.88a1.3,1.3,0,0,1,.73.34,1.47,1.47,0,0,1,.31.61,1.31,1.31,0,0,1,.42.24,1.15,1.15,0,0,1,.28.68v1.67H84.7v.9h.68v7.65H81.2a1,1,0,0,1-.24,0,1,1,0,0,1-.67-.55l-.22,0A1.15,1.15,0,0,1,79.21,60V58.27h-32a1,1,0,0,1-.87-.59,1.2,1.2,0,0,1-1.11-1.17Z"/>
            <path class="cls-5" d="M38.82,56.55,37.76,54.1V50.32H4.88a.62.62,0,0,0-.34.15.65.65,0,0,0-.15.36V57H38.31A.55.55,0,0,0,38.82,56.55Zm42.11-2.69v3.82l-1.08,2.41a.54.54,0,0,0,.5.47h3.71v-6.7Zm-.79,3.82h-.3v.74Zm-75.59,0,.3.74v-.74Zm.3,2.41-1-2.41h-.1V53.86H.64v6.69h3.7l.12,0A.5.5,0,0,0,4.85,60.09ZM38.79,46.77a.56.56,0,0,0-.4.5v6.2H46.3V47.29a.41.41,0,0,0,0-.13.51.51,0,0,0-.48-.4h-7Zm7.08,9.71a.66.66,0,0,0,0,.17.56.56,0,0,0,.43.4h34V50.83a.61.61,0,0,0-.15-.36.71.71,0,0,0-.33-.15H46.94V54.1Zm.28-2.38h-.28v.72Zm-7.61,0h.29v.72Z"/>
            <path class="cls-1" d="M10.59,55.56a.71.71,0,0,0,.33-.12,4.58,4.58,0,0,0,.45-.54l.85-1.09-.6-.92a5.91,5.91,0,0,0-.55-.74.62.62,0,0,0-.42-.16v-.1h1.64V52A1.27,1.27,0,0,0,12,52a.15.15,0,0,0-.11.16.49.49,0,0,0,.05.18l.08.13.56.86.62-.79a1.24,1.24,0,0,0,.18-.27.26.26,0,0,0,0-.11.17.17,0,0,0-.12-.17L13,52v-.1H14.3V52a.74.74,0,0,0-.34.08,1.85,1.85,0,0,0-.46.47l-.8,1,1,1.57a1.18,1.18,0,0,0,.28.32.93.93,0,0,0,.32.1v.1h-1.6v-.11a1.08,1.08,0,0,0,.32,0,.14.14,0,0,0,.09-.14.74.74,0,0,0-.12-.3L12.35,54l-.63.86a2.91,2.91,0,0,0-.2.27.45.45,0,0,0-.09.2.18.18,0,0,0,.14.17,1.09,1.09,0,0,0,.28.05v.1H10.59Zm6.93-3.67V52a.73.73,0,0,0-.41.12c-.06,0-.09.19-.09.4v1.82a1.66,1.66,0,0,0,.12.7.83.83,0,0,0,.82.46.9.9,0,0,0,.89-.47,2.06,2.06,0,0,0,.13-.81V52.73a1,1,0,0,0-.11-.58.65.65,0,0,0-.4-.16v-.1h1.25V52a.6.6,0,0,0-.41.17,1.12,1.12,0,0,0-.09.57v1.48a2,2,0,0,1-.18.92,1.22,1.22,0,0,1-1.2.61,1.23,1.23,0,0,1-1.2-.6,1.86,1.86,0,0,1-.17-.85V52.51a.6.6,0,0,0-.09-.4A.72.72,0,0,0,16,52v-.1Zm2.36,3.67a.67.67,0,0,0,.43-.16,1.13,1.13,0,0,0,.1-.58V52.51a.58.58,0,0,0-.1-.4c-.06-.07-.2-.1-.42-.12v-.1H21l1.26,2.87,1.19-2.87H24.5V52a.65.65,0,0,0-.39.12.6.6,0,0,0-.09.4V55c0,.21,0,.35.09.4a.65.65,0,0,0,.39.12v.1H23v-.1a.66.66,0,0,0,.4-.12.79.79,0,0,0,.08-.46V52.42l-1.38,3.24H22l-1.37-3.11v2.27a1,1,0,0,0,.13.61.6.6,0,0,0,.38.13v.1H19.88Zm7.06-.27a.71.71,0,0,0,.28-.66.67.67,0,0,0-.33-.65,1.7,1.7,0,0,0-.83-.18H25.8v1.42c0,.1,0,.17.08.19a.87.87,0,0,0,.37.05A1.36,1.36,0,0,0,26.94,55.29Zm-2.21.27a.71.71,0,0,0,.42-.11c.07-.06.1-.19.1-.41V52.51c0-.21,0-.35-.1-.41a.79.79,0,0,0-.42-.11v-.1h1.52a2,2,0,0,1,1,.22.8.8,0,0,1,.38.76.72.72,0,0,1-.27.61,1.36,1.36,0,0,1-.45.2,1.53,1.53,0,0,1,.64.31.79.79,0,0,1,.26.62.91.91,0,0,1-.58.92,1.94,1.94,0,0,1-.77.13H24.73Zm2-2.07a.64.64,0,0,0,.34-.6.68.68,0,0,0-.4-.69,1.6,1.6,0,0,0-.66-.1.4.4,0,0,0-.21,0s0,.08,0,.17v1.28h.51A1.39,1.39,0,0,0,26.77,53.49Zm3.39.09a.79.79,0,0,0,.05-1.38,1.44,1.44,0,0,0-.55-.09.7.7,0,0,0-.28,0s-.06.08-.06.16v1.41A2.82,2.82,0,0,0,30.16,53.58Zm-1.85,2c.21,0,.34-.06.39-.13a.89.89,0,0,0,.07-.45V52.51a.65.65,0,0,0-.08-.4.67.67,0,0,0-.38-.12v-.1h1.5a2.21,2.21,0,0,1,.78.12.88.88,0,0,1,.59.88.83.83,0,0,1-.26.65,1.48,1.48,0,0,1-.72.3l1.12,1.45a.88.88,0,0,0,.2.19.66.66,0,0,0,.27.08v.1h-.87l-1.29-1.75h-.31V55a.61.61,0,0,0,.09.41.89.89,0,0,0,.41.11v.1H28.31Zm5.81-1.36-.63-1.57-.62,1.57Zm-2.34,1.46v-.1a.42.42,0,0,0,.31-.17,4.46,4.46,0,0,0,.36-.77l1.13-2.8h.1L35,55.06a1.76,1.76,0,0,0,.22.4.58.58,0,0,0,.27.1v.1H34.14v-.1a1,1,0,0,0,.31-.06.16.16,0,0,0,.07-.15.64.64,0,0,0,0-.15c0-.07,0-.14-.07-.22l-.23-.55H32.77c-.14.37-.22.6-.25.68a.58.58,0,0,0,0,.2.21.21,0,0,0,.11.2,1,1,0,0,0,.26.05v.1Zm7.62-3.82a.92.92,0,0,0,.45-.1c.07-.05.1-.19.1-.41V48.79c0-.21,0-.34-.1-.4a.72.72,0,0,0-.45-.11v-.11h1.68v.11a.72.72,0,0,0-.45.11c-.07.06-.1.19-.1.4v2.54c0,.22,0,.36.1.41a.92.92,0,0,0,.45.1v.1H39.4Zm1.87,0a.68.68,0,0,0,.45-.16,1,1,0,0,0,.1-.57V48.59l-.08-.09a.53.53,0,0,0-.21-.18.83.83,0,0,0-.26,0v-.11h1l2.2,2.75V49a.93.93,0,0,0-.14-.61.65.65,0,0,0-.4-.12v-.11h1.33v.11a.62.62,0,0,0-.43.16,1,1,0,0,0-.11.57v3h-.1l-2.52-3.13v2.23a1,1,0,0,0,.14.61.68.68,0,0,0,.39.12v.1H41.27Zm12.24,2.59a1.9,1.9,0,0,0,.34.62,1.05,1.05,0,0,0,.84.39.67.67,0,0,0,.47-.17.6.6,0,0,0,.2-.48.67.67,0,0,0-.2-.48,3.76,3.76,0,0,0-.55-.4l-.49-.3a1.48,1.48,0,0,1-.35-.28.88.88,0,0,1-.24-.6.94.94,0,0,1,.29-.71,1,1,0,0,1,.76-.29,1.28,1.28,0,0,1,.46.1l.32.09a.17.17,0,0,0,.14-.05.37.37,0,0,0,.07-.14h.11l.13,1.21h-.14a1.23,1.23,0,0,0-.45-.76,1,1,0,0,0-.6-.22.66.66,0,0,0-.41.14.44.44,0,0,0-.17.38.52.52,0,0,0,.13.37,1.89,1.89,0,0,0,.41.34l.5.31a2.54,2.54,0,0,1,.67.53.94.94,0,0,1,.19.58,1,1,0,0,1-.34.75,1.28,1.28,0,0,1-.87.3,1.89,1.89,0,0,1-.55-.1,1.66,1.66,0,0,0-.33-.1.14.14,0,0,0-.13.06.29.29,0,0,0,0,.13h-.12l-.17-1.22Zm4.31.6a1.12,1.12,0,0,0,.87.43,1.09,1.09,0,0,0,.86-.42,2.69,2.69,0,0,0,0-2.69,1.1,1.1,0,0,0-1.73,0,2.7,2.7,0,0,0,0,2.66Zm-.42-2.8a1.91,1.91,0,0,1,2.59,0,2.14,2.14,0,0,1,0,2.93,1.91,1.91,0,0,1-2.61-.05,2.15,2.15,0,0,1,0-2.89Zm3.78,3.25a.8.8,0,0,0,.4-.11c.07-.06.1-.19.1-.41V52.43a.61.61,0,0,0-.09-.4.73.73,0,0,0-.41-.12v-.1h1.61v.1a.9.9,0,0,0-.43.11.48.48,0,0,0-.1.37v2.74a.33.33,0,0,0,0,.15.2.2,0,0,0,.14.07h.4a2.63,2.63,0,0,0,1-.13,1.27,1.27,0,0,0,.52-.64h.14l-.28,1H61.18Zm3.82,0a.85.85,0,0,0,.41-.11A.61.61,0,0,0,65.5,55V52.43a.61.61,0,0,0-.09-.4.73.73,0,0,0-.41-.12v-.1h3l0,.82h-.14a.82.82,0,0,0-.22-.49A1.19,1.19,0,0,0,67,52h-.77c-.09,0-.14,0-.16,0a.26.26,0,0,0,0,.15v1.27H67a.71.71,0,0,0,.47-.11,1,1,0,0,0,.16-.44h.13v1.32h-.13a.94.94,0,0,0-.17-.43c-.06-.08-.22-.11-.46-.11h-.88v1.41c0,.11,0,.18.11.2a3.7,3.7,0,0,0,.64,0,2.09,2.09,0,0,0,.86-.13,1.13,1.13,0,0,0,.49-.61h.16l-.26,1H65Zm3.83,0a.68.68,0,0,0,.45-.16,1,1,0,0,0,.1-.58V52.43c0-.21,0-.34-.1-.4s-.21-.1-.44-.12v-.1H70l1.32,2.87,1.26-2.87h1.13v.1a.76.76,0,0,0-.41.12.61.61,0,0,0-.09.4V55a.6.6,0,0,0,.09.4.76.76,0,0,0,.41.12v.1H72.09v-.1a.69.69,0,0,0,.42-.12.77.77,0,0,0,.09-.46V52.34l-1.46,3.24h-.08l-1.43-3.11v2.27a.91.91,0,0,0,.14.61.68.68,0,0,0,.4.13v.1H68.83Zm-61.55.08a.79.79,0,0,0,.39-.11A.61.61,0,0,0,7.76,55V52.51a.6.6,0,0,0-.09-.4A.65.65,0,0,0,7.28,52v-.1h2.88l0,.82H10a.78.78,0,0,0-.2-.49,1.09,1.09,0,0,0-.62-.11H8.49c-.08,0-.13,0-.15,0a.24.24,0,0,0,0,.15v1.27h.84c.23,0,.37,0,.44-.11A1,1,0,0,0,9.74,53h.13v1.32H9.74a.81.81,0,0,0-.16-.43c-.06-.08-.21-.11-.43-.11H8.31v1.41c0,.11,0,.18.1.2a3.42,3.42,0,0,0,.61,0,1.91,1.91,0,0,0,.82-.13,1.16,1.16,0,0,0,.47-.61h.15l-.25,1H7.28Z"/>
          </g>
        </g>
      </g>
    </g>
  </g>
</svg>
