<?xml version="1.0" encoding="UTF-8"?>
<svg id="Capa_2" data-name="Capa 2" xmlns="http://www.w3.org/2000/svg" viewBox="0 0 194.64 94.39">
  <defs>
    <style>
      .cls-1 {
        fill: #008251;
      }

      .cls-1, .cls-2, .cls-3, .cls-4, .cls-5, .cls-6 {
        fill-rule: evenodd;
        stroke-width: 0px;
      }

      .cls-2 {
        fill: #005f94;
      }

      .cls-3 {
        fill: #12100b;
      }

      .cls-4 {
        fill: #d2091e;
      }

      .cls-5 {
        fill: #fff;
      }

      .cls-6 {
        fill: #f9b000;
      }
    </style>
  </defs>
  <g id="Primer_plano" data-name="Primer plano">
    <g>
      <path class="cls-3" d="m188.77,69.62l1.82,4.31h-3.62l1.8-4.31Zm.56-2.26h-.31l-3.18,7.55c-.64,1.52-1.05,2.66-2.02,2.74v.3h3.1v-.3c-.53,0-1.06-.14-1.06-.66,0-.58.64-1.83.84-2.43h4.1l.56,1.33c.6,1.39.61,1.69-.72,1.75v.3h3.99v-.3c-.87.05-1.21-.89-1.49-1.53l-3.82-8.76Zm-7.42.02h-.33c-.52,1.27-1.3-.02-3.45-.02-3.15,0-5.36,2.3-5.36,5.42,0,3.43,2.34,5.39,5.39,5.39,1.5,0,3.12-.79,4.07-1.96l-.27-.31c-1.08,1.06-2.13,1.56-3.67,1.56-2.57,0-3.71-2.36-3.71-4.56,0-2.82,1.11-4.9,3.7-4.9,1.78,0,2.93,1.18,3.38,2.9h.38l-.14-3.52Zm-12.31,1.46c0-.45.23-.96,1.54-.96v-.3h-4.67v.3c1.3,0,1.54.5,1.54.96v7.86c0,.46-.24.96-1.54.96v.3h4.67v-.3c-1.3,0-1.54-.5-1.54-.96v-7.86Zm-6,0c0-.45.23-.96,1.52-.96v-.3h-3.73v.3c1.28,0,1.52.5,1.52.96v6.28l-6.03-7.54h-2.68v.3c.77.02.91.16,1.39.71l.13.16v7.96c0,.46-.23.96-1.52.96v.3h3.73v-.3c-1.28,0-1.52-.5-1.52-.96v-7.15l6.95,8.63h.24v-9.34Zm-11.25-1.46h-.33c-.52,1.27-1.3-.02-3.45-.02-3.15,0-5.36,2.3-5.36,5.42,0,3.43,2.33,5.39,5.39,5.39,1.5,0,3.12-.79,4.07-1.96l-.26-.31c-1.08,1.06-2.13,1.56-3.67,1.56-2.57,0-3.71-2.36-3.71-4.56,0-2.82,1.11-4.9,3.7-4.9,1.79,0,2.93,1.18,3.38,2.9h.38l-.14-3.52Zm-11.44,10.57l.71-2.65h-.44c-.83,1.99-2.02,2-3.27,2h-2.07c-.31,0-.41-.33-.41-.61v-3.85h2.21c1.05,0,1.94.3,1.94,1.52h.33v-3.67h-.33c0,1.22-.89,1.5-1.94,1.5h-2.21v-3.37c0-.39.29-.61.69-.61h2.52c1.1,0,1.61.75,1.79,1.6h.34v-2.24h-8.32v.3c1.14,0,1.38.5,1.38.96v7.86c0,.46-.23.96-1.38.96v.3h8.46Zm-12.13-.3c-1.14,0-1.38-.5-1.38-.96v-8.46h1.13c1.16,0,1.88,0,2.22,2.01h.38l-.09-2.66h-8.87l-.09,2.66h.38c.35-2.01,1.06-2.01,2.23-2.01h1.13v8.46c0,.46-.24.96-1.38.96v.3h4.36v-.3Zm-21.93-8.69c0-.75.14-.8.89-.8,2.9,0,4.9,1.58,4.9,4.65s-1.85,4.64-5.04,4.49c-.35-.02-.75-.19-.75-.77v-7.58Zm1.19,8.99c4.2,0,6.31-1.97,6.31-5.15,0-3.52-2.43-5.22-6.44-5.22h-4.04v.3c1.14,0,1.38.5,1.38.96v7.86c0,.46-.24.96-1.38.96v.3h4.17Zm-11.47-8.33l1.82,4.31h-3.62l1.8-4.31Zm.56-2.26h-.31l-3.18,7.55c-.64,1.52-1.05,2.66-2.02,2.74v.3h3.1v-.3c-.53,0-1.06-.14-1.06-.66,0-.58.64-1.83.84-2.43h4.1l.56,1.33c.6,1.39.61,1.69-.72,1.75v.3h4v-.3c-.88.05-1.21-.89-1.49-1.53l-3.82-8.76Zm-14.01,1.6c0-.75.14-.8.89-.8,2.9,0,4.9,1.58,4.9,4.65s-1.85,4.64-5.04,4.49c-.34-.02-.75-.19-.75-.77v-7.58Zm1.19,8.99c4.2,0,6.31-1.97,6.31-5.15,0-3.52-2.43-5.22-6.44-5.22h-4.04v.3c1.14,0,1.38.5,1.38.96v7.86c0,.46-.24.96-1.38.96v.3h4.17Zm-7.14-9.12c0-.45.24-.96,1.54-.96v-.3h-4.67v.3c1.3,0,1.53.5,1.53.96v7.86c0,.46-.24.96-1.53.96v.3h4.67v-.3c-1.3,0-1.54-.5-1.54-.96v-7.86Zm-11.86,9.34h.34c.16-1.14,1.28,0,2.91,0,2.13,0,3.31-1.46,3.31-2.87,0-1.88-1.44-2.55-3.57-3.84-.67-.41-1.66-1.05-1.66-1.96,0-.99.7-1.5,1.64-1.5,1.46,0,2.49,1.24,2.85,2.69h.39l-.34-3.34h-.33c-.37,1.16-1.13,0-2.79,0-1.54,0-2.77,1.06-2.77,2.62,0,2.99,4.28,3.09,4.92,5.28.36,1.22-.5,2.31-1.77,2.31-1.66,0-2.76-1.31-3.24-2.77h-.36l.47,3.37Zm-9.33-9.26c0-.74.14-.74,1.16-.74,1.41,0,2.51.61,2.51,2.16,0,1.69-1.39,2.16-3.66,2.24v-3.67Zm-1.6,7.78c0,.46-.24.96-1.33.96v.3h4.31v-.3c-1.14,0-1.38-.5-1.38-.96v-3.54l.88-.03,3.73,4.82h2.52v-.3c-.71-.05-1.07-.36-1.49-.88l-3.1-3.82c1.47-.2,2.83-.97,2.83-2.63,0-1.83-1.57-2.74-4.17-2.74h-4.14v.3c1.1,0,1.33.5,1.33.96v7.86Zm-3.31,1.25l.71-2.65h-.44c-.83,1.99-2.02,2-3.27,2h-2.07c-.31,0-.41-.33-.41-.61v-3.85h2.21c1.05,0,1.94.3,1.94,1.52h.33v-3.67h-.33c0,1.22-.89,1.5-1.94,1.5h-2.21v-3.37c0-.39.3-.61.69-.61h2.52c1.1,0,1.61.75,1.79,1.6h.34v-2.24h-8.32v.3c1.14,0,1.38.5,1.38.96v7.86c0,.46-.23.96-1.38.96v.3h8.46Zm-14.98.22h.2c.86-2.26,2.48-6.39,3.63-9.16.25-.63.56-1.11,1.3-1.13v-.3h-3.21v.3c.45,0,1.14.08,1.14.67,0,.36-.23.97-.38,1.3l-2.23,5.58-2.29-5.12c-.14-.31-.72-1.52-.72-1.85,0-.37.17-.58,1.18-.58v-.3h-4.17v.3c.91,0,1.32.88,1.74,1.82l3.79,8.47Zm-8.51-9.34c0-.45.23-.96,1.53-.96v-.3h-4.67v.3c1.3,0,1.54.5,1.54.96v7.86c0,.46-.23.96-1.54.96v.3h4.67v-.3c-1.3,0-1.53-.5-1.53-.96v-7.86Zm-6.01,0c0-.45.23-.96,1.52-.96v-.3h-3.73v.3c1.29,0,1.52.5,1.52.96v6.28l-6.03-7.54h-2.68v.3c.77.02.91.16,1.4.71l.12.16v7.96c0,.46-.24.96-1.52.96v.3h3.73v-.3c-1.29,0-1.52-.5-1.52-.96v-7.15l6.95,8.63h.24v-9.34Zm-20.13,5.15c0,2.87,1.16,4.18,4.01,4.18.66,0,1.5-.17,2.01-.41,1.77-.84,1.93-2.22,1.93-3.99v-4.94c0-.45.24-.96,1.47-.96v-.3h-3.64v.3c1.24,0,1.47.5,1.47.96v4.94c0,1.49-.02,3.7-2.94,3.7-1.96,0-2.71-.92-2.71-3.37v-5.26c0-.45.23-.96,1.38-.96v-.3H.06v.3c1.14,0,1.38.5,1.38.96v5.15Zm187.33,11.85l1.82,4.31h-3.62l1.8-4.31Zm.56-2.26h-.31l-3.18,7.55c-.64,1.52-1.05,2.66-2.02,2.74v.3h3.1v-.3c-.53,0-1.06-.14-1.06-.66,0-.58.64-1.83.84-2.43h4.1l.56,1.33c.6,1.39.61,1.69-.72,1.76v.3h3.99v-.3c-.87.05-1.21-.89-1.49-1.54l-3.82-8.76Zm-7.99,1.47c0-.46.23-.96,1.54-.96v-.3h-4.67v.3c1.3,0,1.54.5,1.54.96v7.86c0,.45-.24.96-1.54.96v.3h4.67v-.3c-1.3,0-1.54-.5-1.54-.96v-7.86Zm-11.19.08c0-.74.14-.74,1.16-.74,1.41,0,2.51.61,2.51,2.16,0,1.69-1.4,2.16-3.67,2.24v-3.66Zm-1.6,7.78c0,.45-.24.96-1.33.96v.3h4.3v-.3c-1.14,0-1.38-.5-1.38-.96v-3.54l.88-.03,3.73,4.82h2.52v-.3c-.71-.05-1.07-.36-1.49-.88l-3.1-3.82c1.47-.2,2.83-.97,2.83-2.63,0-1.83-1.57-2.74-4.17-2.74h-4.13v.3c1.09,0,1.33.5,1.33.96v7.86Zm-8.09-7.08l1.82,4.31h-3.62l1.8-4.31Zm.56-2.26h-.32l-3.18,7.55c-.64,1.52-1.05,2.66-2.02,2.74v.3h3.1v-.3c-.53,0-1.06-.14-1.06-.66,0-.58.64-1.83.84-2.43h4.1l.56,1.33c.6,1.39.61,1.69-.72,1.76v.3h3.99v-.3c-.88.05-1.21-.89-1.49-1.54l-3.82-8.76Zm-7.87,1.47c0-.46.24-.96,1.38-.96v-.3h-3.12l-3.46,7.91-3.62-7.91h-3.1v.3c1.25,0,1.49.5,1.49.96v7.86c0,.45-.24.96-1.52.96v.3h3.73v-.3c-1.29,0-1.52-.5-1.52-.96v-7.3l3.93,8.55h.22l4.01-8.91v7.66c0,.45-.24.96-1.38.96v.3h4.35v-.3c-1.14,0-1.38-.5-1.38-.96l-.02-7.86Zm-22.83.78l1.82,4.31h-3.62l1.8-4.31Zm.56-2.26h-.31l-3.18,7.55c-.64,1.52-1.05,2.66-2.02,2.74v.3h3.1v-.3c-.53,0-1.06-.14-1.06-.66,0-.58.64-1.83.84-2.43h4.1l.56,1.33c.6,1.39.61,1.69-.72,1.76v.3h3.99v-.3c-.88.05-1.2-.89-1.49-1.54l-3.82-8.76Zm-7.35,10.29c-1.14,0-1.38-.5-1.38-.96v-8.46h1.13c1.16,0,1.88,0,2.22,2h.38l-.09-2.66h-8.87l-.09,2.66h.37c.35-2,1.07-2,2.23-2h1.13v8.46c0,.45-.24.96-1.38.96v.3h4.35v-.3Zm-9.12-8.82c0-.46.24-.96,1.52-.96v-.3h-3.73v.3c1.29,0,1.52.5,1.52.96v6.28l-6.03-7.54h-2.68v.3c.77.01.91.16,1.4.71l.12.16v7.95c0,.45-.24.96-1.52.96v.3h3.73v-.3c-1.28,0-1.52-.5-1.52-.96v-7.16l6.95,8.63h.23v-9.33Zm-16.15.78l1.82,4.31h-3.62l1.8-4.31Zm.56-2.26h-.31l-3.18,7.55c-.64,1.52-1.05,2.66-2.02,2.74v.3h3.1v-.3c-.53,0-1.07-.14-1.07-.66,0-.58.64-1.83.85-2.43h4.1l.56,1.33c.6,1.39.61,1.69-.72,1.76v.3h3.99v-.3c-.88.05-1.21-.89-1.49-1.54l-3.82-8.76Zm-13.77,10.81h.34c.16-1.14,1.29,0,2.91,0,2.13,0,3.31-1.46,3.31-2.87,0-1.88-1.44-2.55-3.57-3.84-.67-.41-1.66-1.05-1.66-1.96,0-.99.7-1.5,1.64-1.5,1.46,0,2.49,1.24,2.85,2.7h.39l-.34-3.34h-.33c-.38,1.16-1.13,0-2.79,0-1.53,0-2.77,1.07-2.77,2.62,0,2.99,4.28,3.08,4.92,5.28.36,1.22-.5,2.32-1.77,2.32-1.66,0-2.76-1.31-3.24-2.77h-.36l.47,3.37Zm-11.24-10.24c2.43-.03,3.35,2.38,3.35,4.84.08,1.68-.56,4.62-3.35,4.84-1.85.14-3.35-1.62-3.35-4.84,0-2.99,1.02-4.68,3.35-4.84Zm0-.56c-3.05-.06-5.14,2.29-5.14,5.4,0,3.32,2.38,5.4,5.14,5.4,3.13,0,5.12-2.38,5.12-5.4,0-3.34-2.41-5.53-5.12-5.4Zm-6.9.02h-.33c-.52,1.27-1.3-.02-3.45-.02-3.15,0-5.36,2.3-5.36,5.42,0,3.43,2.33,5.39,5.39,5.39,1.5,0,3.12-.79,4.07-1.96l-.27-.31c-1.08,1.06-2.13,1.57-3.66,1.57-2.57,0-3.71-2.37-3.71-4.56,0-2.82,1.11-4.9,3.7-4.9,1.79,0,2.93,1.18,3.38,2.9h.38l-.14-3.52Zm-11.89,1.46c0-.46.24-.96,1.54-.96v-.3h-4.67v.3c1.3,0,1.54.5,1.54.96v7.86c0,.45-.23.96-1.54.96v.3h4.67v-.3c-1.3,0-1.54-.5-1.54-.96v-7.86Zm-11.19.08c0-.74.14-.74,1.16-.74,1.41,0,2.51.61,2.51,2.16,0,1.69-1.4,2.16-3.67,2.24v-3.66Zm-1.6,7.78c0,.45-.23.96-1.33.96v.3h4.31v-.3c-1.14,0-1.38-.5-1.38-.96v-3.54l.88-.03,3.73,4.82h2.52v-.3c-.7-.05-1.07-.36-1.49-.88l-3.1-3.82c1.47-.2,2.83-.97,2.83-2.63,0-1.83-1.57-2.74-4.17-2.74h-4.13v.3c1.1,0,1.33.5,1.33.96v7.86Zm-2.89,1.25l.7-2.65h-.44c-.83,1.99-2.02,2-3.27,2h-2.07c-.31,0-.41-.33-.41-.61v-3.85h2.21c1.05,0,1.94.29,1.94,1.52h.33v-3.67h-.33c0,1.22-.89,1.5-1.94,1.5h-2.21v-3.37c0-.39.3-.61.69-.61h2.52c1.1,0,1.61.75,1.79,1.6h.35v-2.24h-8.32v.3c1.14,0,1.38.5,1.38.96v7.86c0,.45-.23.96-1.38.96v.3h8.46Zm-17.11-8.99c0-.75.14-.8.89-.8,2.9,0,4.9,1.58,4.9,4.65s-1.85,4.64-5.04,4.49c-.34-.02-.75-.19-.75-.77v-7.58Zm1.19,8.99c4.2,0,6.31-1.97,6.31-5.15,0-3.52-2.43-5.22-6.44-5.22h-4.04v.3c1.14,0,1.38.5,1.38.96v7.86c0,.45-.23.96-1.38.96v.3h4.17Zm-5.85,0l.7-2.65h-.44c-.83,1.99-2.02,2-3.27,2h-2.07c-.31,0-.41-.33-.41-.61v-3.85h2.21c1.05,0,1.94.29,1.94,1.52h.33v-3.67h-.33c0,1.22-.89,1.5-1.94,1.5h-2.21v-3.37c0-.39.3-.61.69-.61h2.52c1.1,0,1.61.75,1.78,1.6h.34v-2.24h-8.32v.3c1.14,0,1.38.5,1.38.96v7.86c0,.45-.23.96-1.38.96v.3h8.46Zm-13.22,0v-.3c-1.18,0-1.41-.5-1.41-.96v-3.85h2.07c1.05,0,1.94.29,1.94,1.52h.33v-3.67h-.33c0,1.22-.89,1.5-1.94,1.5h-2.07v-3.37c0-.37.12-.61.67-.61h2.07c1.1,0,2.04-.13,2.24,1.6h.38v-2.24H0v.3c1.14,0,1.38.5,1.38.96v7.86c0,.45-.23.96-1.38.96v.3h4.39Z"/>
      <g>
        <g>
          <path class="cls-6" d="m132.62,11.8h-32.41s.01,24.87.01,24.87c0,0-.02.09-.01.19.02.98.91,2.16,1.49,2.82,1.11,1.24,2.68,1.89,4.31,1.89.28,0,.47-.03.47-.03h5.31s.49,0,1.08.07c1.87.19,2.5.82,3.54,2.3,1.14-1.8,2.11-2.32,4.23-2.35h6.63c2.43-.36,4.35-1.76,5.14-4.13.15-.46.19-.77.2-.85V11.8Z"/>
          <path class="cls-2" d="m58.97.6c1.42.83,1.82,1.85,2.04,3.43v32.62s-.01.07,0,.19c.11,1.01.91,2.09,1.55,2.78,1.13,1.21,3.09,1.97,4.74,1.91h5.44s.43,0,.97.05c1.81.17,2.52.8,3.51,2.26,1.24-1.78,2.21-2.3,4.38-2.31h6.48c2.31-.35,4.3-1.98,5.15-4.16.07-.18.17-.48.18-.69V4.34s.03-.45.14-.99c.28-1.46.75-2.11,1.97-2.74h-8.95s0,15.74,0,15.74v15.51s-.03.32-.11.69c-.28,1.31-.96,1.78-2.17,2.21h-13.8s-.36-.1-.74-.27c-1.26-.56-1.64-1.3-1.85-2.61V.6h-8.95Z"/>
          <path class="cls-2" d="m98.12.61c1.45.86,1.85,1.82,2.09,3.42v7.16h32.41v-6.86s.05-.45.18-.98c.32-1.36.9-2.12,1.86-2.74h-36.54Z"/>
          <g>
            <path class="cls-3" d="m122.57,36.56c-.08.23-.14.46-.15.65l.12-.05c-.02-.09,0-.33.02-.6Zm1.26,1.31l.06.2s-.08.12-.15.19c-.25.27-.5.31-.84.28-.25-.04-.52-.26-.72-.41l.08-.02c-.08-.04-.16-.09-.23-.14-.32.21-1-.03-1.27-.14l.15-.18c-.23-.05-.45-.13-.58-.19,0,0,.17-.26.23-.34.14-.19.29-.34.52-.43l.08-.16c.18-.58.28-1.24-.11-1.75-.16-.21-.24-.36-.29-.56-.81.13-1.02.26-1.85.67-.22.11-.48.15-.72.08l-.07-.03c-.08-.04-.15-.11-.14-.2-.63,0-1.26.02-1.89.07.03.19.08.52.11.76.05.35.03.71.16,1.04l.08.19c.1.22.14.35.04.59l.02.11c.06.37-.41.47-.68.47-.23,0-.46-.15-.65-.27l.05-.13c-.07-.01-.13-.04-.18-.06-.1-.05-.3-.17-.3-.17,0,0,.04-.18.07-.26.05-.14.12-.3.22-.41v-.75s-.08-.12-.08-.12l-.08-.1c-.14.37-.27.81-.2,1.09l.04.14c.07.26-.01.43-.2.6l.09.41s-.13.12-.21.19c-.4.31-.76.26-1.22.12,0,0-.01-.13,0-.16,0-.03.02-.06.03-.09-.16-.02-.32-.07-.5-.12,0,0,.05-.25.09-.35.09-.24.23-.42.4-.6l.07-.07c.02-.15.03-.3.08-.45.2-.57-.21-.52-.15-1.26-.35-.25-.95-.5-1.12-.87-.07-.14-.14-.19-.23-.31l-.05-.07c-.2-.14-.23-.09-.27-.37l-.02-.14c-.03-.18-.14-.39-.29-.58-.66-.51-1,.05-1.58-.21-.03-.01-.06-.03-.08-.05-.18-.13-.35-.18-.49-.12l-.09.04c-.38.16-.91.2-1.14-.25-.18-.08-.33-.18-.43-.38-.12-.24-.1-.53.09-.72l.08-.07c.24-.23.13-.68.58-1.09.33-.3.16-.5.47-.81-.34-.17-.61-.42-.87-.72l.25-.3s.16.09.37.18c.17.08.49.2.69.13l.12-.04c.19-.07.39-.09.57,0l.07.04.1.07c.19.1.34-.19.81.02.04.02.08.04.12.04.16,0,.75-.12,1.24-.12.57,0,.88.13,1.45.16.52.02.81-.03,1.33-.02,1.01.01,1.57.17,2.58.16,1.46,0,2.27-.41,3.73-.38,1.01.02,2.59-.11,3.06.9.29.21.45.46.47,1.02.02.52-.06,1.32-.46,1.73-.52.7-1.03,1.62-.56,2.45.34.6.25.97.18,1.66,0,0-.01.64.06,1.05,0,.04.02.08.03.12l.05.13c.07.22.06.35-.18.44Z"/>
            <path class="cls-4" d="m123.06,37.35c-.14.07-.39.19-.47.24-.08.05-.14.1-.18.14.05.02.12.05.16.06.24.02.39,0,.56-.2l-.07-.24Zm-1.64-.34s-.15.03-.2.05c-.1.04-.19.11-.26.19.47.11.56.15.46-.23Zm1.62-5.32c.39-.3.76-.7.87-.98.02-.05.02-.08.02-.08.15-.6.08-1.33-.39-1.56-.73-.36-1.57-.28-2.36-.3-1.46-.03-2.26.37-3.72.38-1.01,0-1.57-.15-2.58-.16-.53,0-.82.04-1.35.02-.56-.03-.87-.16-1.43-.16-.49,0-1.08.12-1.24.12-.25,0-.32-.18-.56-.08-.18.07-.34.09-.52,0l-.07-.04-.1-.07c-.11-.06-.2-.03-.27,0l-.13.05s-.11.03-.17.04l.42.19c-.47.31-.55.26-.71.76-.12.38-.46.46-.57.86-.06.24-.13.49-.32.66l-.08.07c-.2.19.14.46.37.41.1-.02.21-.04.31-.08l.08-.04c.25-.11.55-.04.77.12l.09.06c.47.22.86-.45,1.83.37.3.25.6.67.67,1.06l.02.15c.11.09.17.15.22.21.34.3.18.46.58.69.3.18.92.5.92.5-.15,1.01.16.63.18,1.22,0,.14-.03.24-.06.32l-.04.11c-.05.16-.06.34-.08.5-.17.17-.34.34-.45.56.3.05.4.03.62-.16l-.12-.42c.14-.09.35-.19.3-.38l-.04-.15c-.16-.67.42-1.79.7-2.36.2.64.35,1.12.77,1.66l.06.94-.19-.09.16.23-.15.06c-.02.07-.06.15-.1.24.14.07.43.12.56,0l-.06-.19s.06-.09.06-.11c0-.02.02-.06.02-.09-.02-.1-.04-.15-.07-.21l-.08-.2c-.14-.36-.13-.74-.18-1.12-.05-.36-.17-1.12-.17-1.12,0,0,.96-.09,1.45-.1.46-.02,1.81.01,1.81.01l-.32.22c.33-.09.83-.44,1.27-.58.49-.16,1.02-.22,1.53-.27.03.44.03.79.31,1.16.56.73.34,1.65.06,2.45.05,0,.2-.02.25-.03.08-.66.29-1.21.49-1.78.02-.06-.11-1.03-.12-1.09l.38-.11s.12.28.25.65c.36,1.02.36,1.43.27,2.45l.11.12.17-.03.07-.02-.05-.14c-.13-.4-.11-.87-.11-1.29.06-.62.16-.95-.13-1.48-.41-.72-.22-1.49.14-2.17-.3.22-.6.38-.83.42-.83.16-1.79-.31-2.43-.81h-.09s-.04,0-.07.01l-.1.04c-.42.14-.65-.17-.69-.55-.01-.19.02-.19-.11-.28l-.42-.28s.58-.05.69-.05c.43,0,.67.16,1,.4.04.03,1.41,1.02,2.21.73.6-.22.89-.69,1.19-1.2l.05-.09s.03.05,0,.09l.34-.12s.02.1-.03.19l-.06.11c-.25.43-.5.77-.78,1.01Zm-2.74-.17c.54.37,1.3.73,1.96.61.13-.03.3-.11.49-.23-.52.3-1.14.28-1.98-.12-.17-.08-.33-.17-.47-.25Zm-.67-.18c.11-.03.23-.03.35-.03l-.08-.06s-.14-.11-.25-.16c-.09-.06-.18-.12-.29-.15h-.07s.02.19.02.19c.01.13.04.3.22.24l.11-.04Z"/>
          </g>
          <g>
            <polygon class="cls-3" points="116.91 2.36 117.55 3.3 119.44 2.95 119.34 3.5 119.79 3.42 119.46 5.15 120.71 6.01 120.57 6.11 121.03 6.42 119.43 7.52 119.79 9.42 117.88 9.07 116.79 10.66 116.47 10.21 116.38 10.34 115.52 9.1 113.78 9.42 113.88 8.97 113.32 9.08 113.67 7.19 112.72 6.55 112.05 6.01 113.68 4.89 113.32 2.95 115.26 3.31 116.38 1.68 116.87 2.39 116.91 2.36"/>
            <path class="cls-5" d="m115.58,3.55l.71,1.7s.07,0,.11,0,.07,0,.1,0l.68-1.7-.8-1.17-.8,1.17Zm.34,1.86l-.71-1.71-1.39-.26.26,1.39,1.7.71c.04-.05.09-.1.14-.14Zm-.31.5l-1.69-.7-1.17.8,1.17.8,1.68-.69v-.07s0-.09,0-.14Zm.13.59l-1.66.68-.26,1.39,1.39-.26.7-1.64c-.06-.05-.12-.11-.17-.18Zm.53.34l-.69,1.63.8,1.16.8-1.17-.66-1.63s-.08.01-.13.01-.08,0-.12-.01Zm.62-.16l.66,1.64,1.39.26-.26-1.39-1.62-.69c-.05.07-.1.13-.17.18Zm.3-.56l1.65.7,1.17-.8-1.17-.8-1.66.69s.01.1.01.15v.06Zm-.18-.58l1.67-.7.26-1.39-1.39.26-.68,1.7c.05.04.1.08.14.13Zm-.61.02c-.28,0-.5.22-.5.5s.22.5.5.5.5-.22.5-.5-.22-.5-.5-.5Z"/>
          </g>
          <path class="cls-3" d="m133.87,37.43s-.09,1.52-1.49,3.23c-.96,1.18-2.78,1.98-4.27,2.17h-6.66s-1.52.04-2.31.47c-.76.42-1.47,1.52-1.9,2.3-.17-.27-.37-.58-.6-.88l-.18.34c-.47-.75-.85-1.34-1.25-1.78-.79-.45-2.6-.44-2.61-.44h-5.29c-1.75.2-3.66-.55-4.91-1.79-.42-.29-.81-.62-1.14-.99-1.75-1.96-1.67-3.2-1.63-3.45V11.2s-.01-7.11-.01-7.11c-.22-1.41-.61-2.19-1.5-2.8l-.27.04c-.16.05-1.9.61-2.53,1.49-.56.78-.67,2.4-.67,2.41v32.34s-.01,1.19-1.67,3.14c-.94,1.11-2.63,1.96-4.08,2.14h-6.52s-1.52.02-2.33.43c-.8.41-1.58,1.51-2.06,2.29-.16-.28-.36-.59-.58-.89l-.2.32c-.4-.68-.74-1.23-1.1-1.65l-.12-.07c-.85-.45-2.46-.41-2.47-.41h-5.44s-.76.02-1.78-.22c-1.01-.24-2.27-.75-3.29-1.83-.33-.23-.63-.49-.89-.78-1.71-1.83-1.73-3.18-1.72-3.39V4.07c-.3-2-.91-2.75-2.84-3.49l.11-.58h39.35s38.84.02,38.84.02l.03.12,1.03,1.07c-.76.35-1.83.94-2.3,1.6-.54.75-.74,2.27-.75,2.4v32.22Zm-1.25-25.63h-32.41s.01,24.87.01,24.87c0,0-.02.09-.01.19.02.98.91,2.16,1.49,2.82,1.11,1.24,2.68,1.89,4.31,1.89.28,0,.47-.03.47-.03h5.31s.49,0,1.08.07c1.87.19,2.5.82,3.54,2.3,1.14-1.8,2.11-2.32,4.23-2.35h6.63c2.43-.36,4.35-1.76,5.14-4.13.15-.46.19-.77.2-.85V11.8ZM98.12.61c1.45.86,1.85,1.82,2.09,3.42v7.16h32.41v-6.86s.05-.45.18-.98c.32-1.36.9-2.12,1.86-2.74h-36.54Zm-39.15-.01c1.42.83,1.82,1.85,2.04,3.43v32.62s-.01.07,0,.19c.11,1.01.91,2.09,1.55,2.78,1.13,1.21,3.09,1.97,4.74,1.91h5.44s.43,0,.97.05c1.81.17,2.52.8,3.51,2.26,1.24-1.78,2.21-2.3,4.38-2.31h6.48c2.31-.35,4.3-1.98,5.15-4.16.07-.18.17-.48.18-.69V4.34s.03-.45.14-.99c.28-1.46.75-2.11,1.97-2.74h-8.95s0,15.74,0,15.74v15.51s-.03.32-.11.69c-.28,1.31-.96,1.78-2.17,2.21h-13.8s-.36-.1-.74-.27c-1.26-.56-1.64-1.3-1.85-2.61V.6h-8.95Z"/>
          <path class="cls-6" d="m68.52,31.81c.26,1.45.67,1.89,2.08,2.33h6.6v-17.2h-8.67v14.86Z"/>
          <g>
            <path class="cls-3" d="m76.14,23.84c.11.22.07.43-.08.62l.08.82-.5.07h-.43s-.48,0-.48,0l-.36-.02-.5-.06.06-.28-.51-.06.14-.83c-.12-.14-.16-.28-.13-.47l.02-.08c-.14-.22-.25-.42-.25-.65,0-.15.05-.24.08-.3-.13-.86-.33-2.57-.33-2.57l.48.11.35-.25.27.13.28-.16.3.15.31-.16.31.18.29-.12.35.24.51-.11-.09.54.43-.09-.41,2.44.03.08c.09.27.01.49-.13.72l-.08.11Z"/>
            <path class="cls-1" d="m73.78,23.25h1.7l.06-.09c.15-.23.16-.33.03-.55l.35-2.05-.11.02-.31-.22-.27.11-.29-.17-.29.15-.29-.14-.28.16-.25-.12-.3.21-.12-.02c.06.46.18,1.38.28,1.99.03.21-.1.25-.1.38s.08.25.18.33Zm1.55,1h-1.38l-.06.37h.13s.35.03.35.03h.47s.39,0,.39,0l.15-.02-.04-.37Zm-1.49-.59c-.02.09-.04.13.02.2h1.56c.05-.07.07-.12.05-.2h-1.62s0,0,0,0Z"/>
          </g>
          <g>
            <path class="cls-3" d="m74.14,30.5c.11.22.07.44-.08.62l.08.82-.5.07h-.43s-.48,0-.48,0l-.36-.02-.5-.06.06-.28-.51-.06.14-.83c-.12-.14-.16-.28-.13-.47l.02-.08c-.14-.22-.25-.42-.25-.65,0-.15.05-.24.08-.3-.13-.86-.33-2.57-.33-2.57l.48.11.35-.25.27.13.28-.16.3.14.31-.16.31.18.29-.12.35.24.51-.11-.09.54.43-.09-.41,2.44.03.08c.09.27.02.49-.13.72l-.08.11Z"/>
            <path class="cls-1" d="m71.77,29.91h1.7l.06-.09c.15-.23.16-.33.04-.55l.35-2.05-.11.03-.32-.22-.27.11-.29-.17-.29.15-.29-.14-.28.16-.25-.12-.3.21-.11-.03c.06.46.18,1.38.28,1.99.04.2-.1.25-.1.38s.08.25.18.33Zm1.55.99h-1.39l-.06.37.13.02.35.02h.47s.39,0,.39,0l.15-.02-.04-.37Zm-1.49-.58c-.02.09-.04.13.02.19h1.56c.05-.06.07-.12.05-.2h-1.62s0,0,0,0Z"/>
          </g>
          <g>
            <path class="cls-3" d="m122.57,24.23c-.08.23-.14.46-.15.65l.12-.05c-.02-.09,0-.33.02-.6Zm1.26,1.31l.06.2s-.08.12-.15.19c-.25.26-.5.31-.84.28-.25-.04-.52-.26-.72-.41l.08-.03c-.08-.04-.16-.09-.23-.14-.32.21-1-.03-1.27-.14l.15-.18c-.23-.05-.45-.13-.58-.19,0,0,.17-.27.23-.34.14-.19.29-.34.52-.43l.08-.16c.18-.58.28-1.24-.11-1.75-.16-.21-.24-.36-.29-.56-.81.13-1.02.26-1.85.67-.22.11-.48.15-.72.08l-.07-.03c-.08-.04-.15-.11-.14-.2-.63,0-1.26.02-1.89.07.03.19.08.52.11.76.05.35.03.71.16,1.04l.08.19c.1.23.14.35.04.59l.02.11c.06.37-.41.47-.68.46-.23,0-.46-.15-.65-.27l.05-.13c-.07-.02-.13-.04-.18-.06-.1-.05-.3-.18-.3-.18,0,0,.04-.18.07-.26.05-.14.12-.3.22-.41v-.75s-.08-.11-.08-.11l-.08-.11c-.14.37-.27.81-.2,1.09l.04.14c.07.26-.01.43-.2.6l.09.41s-.13.12-.21.19c-.4.32-.76.26-1.22.12,0,0-.01-.13,0-.16,0-.03.02-.06.03-.09-.16-.02-.32-.07-.5-.12,0,0,.05-.25.09-.35.09-.24.23-.42.4-.6l.07-.07c.02-.15.03-.3.08-.45.2-.57-.21-.52-.15-1.25-.35-.25-.95-.5-1.12-.87-.07-.15-.14-.19-.23-.31l-.05-.07c-.2-.15-.23-.09-.27-.37l-.02-.14c-.03-.18-.14-.39-.29-.58-.66-.51-1,.05-1.58-.21-.03-.01-.06-.03-.08-.05-.18-.13-.35-.18-.49-.12l-.09.04c-.38.16-.91.2-1.14-.25-.18-.08-.33-.18-.43-.38-.12-.24-.1-.54.09-.73l.08-.07c.24-.23.13-.68.58-1.09.33-.3.16-.5.47-.81-.34-.17-.61-.42-.87-.72l.25-.3s.16.09.37.18c.17.07.49.2.69.13l.12-.04c.19-.07.39-.09.57,0l.07.04.1.07c.19.1.34-.19.81.02.04.02.08.04.12.04.16,0,.75-.12,1.24-.12.57,0,.88.13,1.45.16.52.02.81-.03,1.33-.02,1.01.01,1.57.17,2.58.16,1.46,0,2.27-.41,3.73-.38,1.01.02,2.59-.11,3.06.9.29.21.45.46.47,1.02.02.52-.06,1.32-.46,1.73-.52.7-1.03,1.62-.56,2.45.34.6.25.97.18,1.66,0,0-.01.65.06,1.05,0,.04.02.08.03.12l.05.13c.07.22.06.35-.18.44Z"/>
            <path class="cls-4" d="m121.42,24.7s-.15.03-.2.05c-.1.04-.19.1-.26.19.47.11.56.15.46-.23Zm1.64.34c-.14.07-.39.19-.47.24-.08.05-.14.1-.18.14.05.02.12.05.16.06.24.02.39,0,.56-.2l-.07-.24Zm-.02-5.66c.39-.3.76-.7.87-.98.02-.05.02-.08.02-.08.15-.6.08-1.33-.39-1.57-.73-.36-1.57-.28-2.36-.3-1.46-.03-2.26.37-3.72.38-1.01,0-1.57-.15-2.58-.16-.53,0-.82.04-1.35.02-.56-.03-.87-.16-1.43-.16-.49,0-1.08.12-1.24.12-.25,0-.32-.18-.56-.08-.18.07-.34.09-.52,0l-.07-.04-.1-.07c-.11-.06-.2-.03-.27,0l-.13.05s-.11.03-.17.04l.42.19c-.47.31-.55.26-.71.76-.12.38-.46.46-.57.86-.06.24-.13.49-.32.66l-.08.07c-.2.19.14.46.37.42.1-.02.21-.04.31-.08l.08-.04c.25-.11.55-.04.77.12l.09.06c.47.22.86-.45,1.83.37.3.25.6.67.67,1.06l.02.15c.11.09.17.15.22.21.34.3.18.46.58.69.3.18.92.51.92.51-.15,1.01.16.63.18,1.22,0,.14-.03.24-.06.32l-.04.11c-.05.16-.06.34-.08.5-.17.17-.34.34-.45.56.3.05.4.03.62-.16l-.12-.42c.14-.1.35-.19.3-.39l-.04-.15c-.16-.67.42-1.79.7-2.36.2.64.35,1.12.77,1.66l.06.94-.19-.09.16.23-.15.06c-.02.07-.06.15-.1.24.14.07.43.12.56,0l-.06-.19s.06-.09.06-.11c0-.02.02-.06.02-.09-.02-.1-.04-.15-.07-.21l-.08-.2c-.14-.36-.13-.74-.18-1.12-.05-.36-.17-1.12-.17-1.12,0,0,.96-.09,1.45-.1.46-.02,1.81.01,1.81.01l-.32.22c.33-.09.83-.44,1.27-.58.49-.16,1.02-.22,1.53-.27.03.44.03.79.31,1.16.56.73.34,1.65.06,2.45.05,0,.2-.02.25-.03.08-.66.29-1.2.49-1.78.02-.06-.11-1.04-.12-1.09l.38-.11s.12.28.25.65c.36,1.02.36,1.43.27,2.45l.11.12.17-.03.07-.02-.05-.14c-.13-.4-.11-.87-.11-1.29.06-.62.16-.95-.13-1.48-.41-.72-.22-1.49.14-2.17-.3.22-.6.38-.83.42-.83.16-1.79-.31-2.43-.81h-.09s-.04,0-.07.02l-.1.03c-.42.14-.65-.17-.69-.54-.01-.19.02-.19-.11-.28l-.42-.28s.58-.05.69-.05c.43,0,.67.16,1,.4.04.03,1.41,1.02,2.21.73.6-.22.89-.69,1.19-1.2l.05-.09s.03.05,0,.09l.34-.12s.02.1-.03.19l-.06.11c-.25.43-.5.77-.78,1.01Zm-2.74-.17c.54.37,1.3.73,1.96.61.13-.03.3-.11.49-.23-.52.3-1.14.28-1.98-.13-.17-.08-.33-.17-.47-.25Zm-.67-.18c.11-.04.23-.03.35-.03l-.08-.06s-.14-.11-.25-.16c-.09-.06-.18-.12-.29-.15h-.07s.02.19.02.19c.01.13.04.3.22.24l.11-.04Z"/>
          </g>
          <g>
            <path class="cls-3" d="m84.37,36.3h.24s.28,1.15.28,1.15l.22.25s.03.03.07.08c.06.07.1.14.14.21l.14.15s.03.03.07.08c.43.55.29.94-.2,1.34-.1.83-.48,1.05-1.29.95-.21.21-.53.46-.84.46s-.63-.25-.84-.46c-.51.11-.93.12-1.16-.35-.35-.1-.54-.4-.6-.95l-.12-.08c-.55-.4-.39-1.03.03-1.47l.54-.59.3-1.24.81-.04c.46-.37.76-.39,1.25-.01l.86.06.11.45Z"/>
            <path class="cls-5" d="m83.15,36.11c-.06-.04-.1-.08-.15-.11-.13-.08-.22-.1-.33-.06l-.37.26c-.1.09-.11.23-.19.3-.04.04-.36-.06-.3-.28h-.15s-.25,1.05-.25,1.05l-.61.67c-.26.28-.44.63-.07.89l.57-.84.33.22-.63.94c.07.62.23.74.85.6l.23-1.42.4.06-.23,1.47c.12.12.38.34.58.34s.45-.22.57-.34l-.31-1.5.39-.08.3,1.46c.59.05.75-.05.83-.63l-.68-.91.32-.24.6.8c.29-.28.29-.5-.02-.82l-.62-.69-.26-1.05h-.18s-.35.19-.35.19c-.05-.11-.08-.17-.17-.25l-.08-.06Z"/>
          </g>
          <g>
            <path class="cls-3" d="m72.14,23.84c.11.22.07.43-.08.62l.08.82-.5.07h-.43s-.48,0-.48,0l-.36-.02-.5-.06.06-.28-.51-.06.14-.83c-.12-.14-.16-.28-.13-.47l.02-.08c-.14-.22-.25-.42-.25-.65,0-.15.05-.24.08-.3-.13-.86-.33-2.57-.33-2.57l.48.11.35-.25.27.13.28-.16.3.15.31-.16.31.18.29-.12.35.24.51-.11-.09.54.43-.09-.41,2.44.03.08c.09.27.02.49-.13.72l-.08.11Z"/>
            <path class="cls-1" d="m69.77,23.25h1.7l.06-.09c.15-.23.16-.33.03-.55l.35-2.05-.1.02-.32-.22-.27.11-.29-.17-.29.15-.29-.14-.28.16-.25-.12-.3.21-.11-.02c.06.46.18,1.38.28,1.99.03.21-.1.25-.1.38s.08.25.18.33Zm1.54,1h-1.39l-.06.37h.13s.35.03.35.03h.47s.4,0,.4,0l.15-.02-.05-.37Zm-1.49-.59c-.02.09-.04.13.02.2h1.56c.06-.07.07-.12.05-.2h-1.62s0,0,0,0Z"/>
          </g>
          <g>
            <path class="cls-3" d="m73.26,36.3h.24s.28,1.15.28,1.15l.23.25s.03.03.07.08c.06.07.1.14.14.21l.14.15s.03.03.07.08c.43.55.29.94-.2,1.34-.1.83-.48,1.05-1.29.95-.22.21-.53.46-.85.46s-.62-.25-.84-.46c-.5.11-.94.12-1.17-.35-.35-.1-.54-.4-.6-.95l-.12-.08c-.56-.4-.39-1.03.02-1.47l.54-.59.3-1.24.81-.04c.46-.37.75-.39,1.25-.01l.86.06.11.45Z"/>
            <path class="cls-5" d="m72.04,36.11c-.06-.04-.11-.08-.15-.11-.13-.08-.23-.1-.33-.06l-.37.26c-.11.09-.11.23-.19.3-.04.04-.36-.06-.3-.28h-.15s-.26,1.05-.26,1.05l-.61.67c-.26.28-.44.63-.07.89l.57-.84.33.22-.64.94c.07.62.23.74.85.6l.23-1.42.4.06-.23,1.47c.12.12.38.34.58.34s.45-.22.57-.34l-.31-1.5.39-.08.3,1.46c.59.05.75-.05.83-.63l-.68-.91.32-.24.6.8c.29-.28.29-.5-.01-.82l-.62-.69-.26-1.05h-.18s-.35.19-.35.19c-.04-.11-.08-.17-.17-.25l-.08-.06Z"/>
          </g>
          <g>
            <path class="cls-3" d="m91.63,30.4h.24s.28,1.15.28,1.15l.22.25s.03.03.07.08c.06.07.1.14.14.21l.14.15s.03.03.07.08c.43.55.29.94-.2,1.34-.1.83-.48,1.05-1.29.95-.22.21-.53.46-.85.46-.31,0-.62-.25-.84-.46-.5.11-.93.12-1.16-.35-.35-.1-.54-.4-.6-.95l-.12-.08c-.55-.4-.39-1.03.03-1.47l.54-.59.3-1.24.81-.04c.46-.37.75-.39,1.25-.01l.86.05.11.45Z"/>
            <path class="cls-5" d="m90.42,30.22c-.06-.04-.1-.08-.15-.11-.13-.08-.22-.1-.33-.06l-.37.26c-.11.09-.11.23-.19.3-.04.04-.36-.06-.3-.28h-.16s-.25,1.05-.25,1.05l-.61.67c-.26.29-.45.63-.07.89l.56-.84.33.23-.63.94c.07.62.23.74.85.6l.23-1.42.4.06-.23,1.47c.12.12.38.34.58.34s.45-.22.57-.33l-.31-1.5.39-.08.3,1.46c.59.05.75-.05.83-.63l-.68-.91.32-.24.6.8c.29-.28.29-.5-.02-.82l-.62-.69-.25-1.05h-.18s-.35.19-.35.19c-.05-.11-.08-.17-.17-.25l-.08-.06Z"/>
          </g>
          <g>
            <polygon class="cls-3" points="127.34 2.36 127.98 3.3 129.87 2.95 129.77 3.5 130.21 3.42 129.88 5.15 131.14 6.01 131 6.11 131.46 6.42 129.86 7.52 130.21 9.42 128.31 9.07 127.21 10.66 126.9 10.21 126.81 10.34 125.95 9.1 124.2 9.42 124.31 8.97 123.74 9.08 124.09 7.19 123.15 6.55 122.47 6.01 124.1 4.89 123.74 2.95 125.69 3.31 126.81 1.68 127.29 2.39 127.34 2.36"/>
            <path class="cls-5" d="m126.01,3.55l.71,1.7s.07,0,.11,0,.07,0,.1,0l.68-1.7-.8-1.17-.8,1.17Zm.34,1.86l-.71-1.71-1.39-.26.26,1.39,1.7.71c.04-.05.09-.1.14-.14Zm-.31.5l-1.69-.7-1.17.8,1.17.8,1.68-.69v-.07s0-.09,0-.14Zm.13.59l-1.66.68-.26,1.39,1.39-.26.7-1.64c-.06-.05-.12-.11-.17-.18Zm.53.34l-.69,1.63.8,1.16.8-1.17-.66-1.63s-.09.01-.13.01-.08,0-.12-.01Zm.62-.16l.66,1.64,1.39.26-.26-1.39-1.62-.69c-.05.07-.1.13-.17.18Zm.3-.56l1.64.7,1.17-.8-1.17-.8-1.66.69s.01.1.01.15v.06Zm-.19-.58l1.68-.7.26-1.39-1.39.26-.68,1.7c.05.04.1.08.14.13Zm-.61.02c-.27,0-.5.22-.5.5s.22.5.5.5.5-.22.5-.5-.22-.5-.5-.5Z"/>
          </g>
          <g>
            <path class="cls-3" d="m91.63,21.64h.24s.28,1.15.28,1.15l.22.25s.03.03.07.08c.06.07.1.14.14.21l.14.16s.03.03.07.08c.43.55.29.94-.2,1.34-.1.83-.48,1.05-1.29.95-.22.21-.53.46-.85.46-.31,0-.62-.25-.84-.46-.5.11-.93.12-1.16-.35-.35-.1-.54-.4-.6-.95l-.12-.08c-.55-.4-.39-1.03.03-1.47l.54-.59.3-1.24.81-.04c.46-.37.75-.39,1.25-.01l.86.05.11.45Z"/>
            <path class="cls-5" d="m90.42,21.46c-.06-.04-.1-.08-.15-.11-.13-.08-.22-.1-.33-.06l-.37.26c-.11.09-.11.23-.19.3-.04.04-.36-.06-.3-.28h-.16s-.25,1.05-.25,1.05l-.61.67c-.26.28-.45.63-.07.89l.56-.84.33.22-.63.94c.07.62.23.74.85.6l.23-1.42.4.06-.23,1.47c.12.12.38.34.58.35.19,0,.45-.22.57-.34l-.31-1.5.39-.08.3,1.46c.59.05.75-.05.83-.63l-.68-.91.32-.24.6.8c.29-.28.29-.5-.02-.82l-.62-.69-.25-1.05h-.18s-.35.19-.35.19c-.05-.11-.08-.17-.17-.25l-.08-.06Z"/>
          </g>
          <g>
            <path class="cls-3" d="m91.63,12.88h.24s.28,1.15.28,1.15l.22.25s.03.03.07.08c.06.07.1.14.14.21l.14.16s.03.03.07.08c.43.55.29.94-.2,1.34-.1.83-.48,1.05-1.29.96-.22.21-.53.46-.85.46-.31,0-.62-.25-.84-.46-.5.11-.93.12-1.16-.35-.35-.1-.54-.4-.6-.95l-.12-.08c-.55-.4-.39-1.03.03-1.47l.54-.59.3-1.24.81-.04c.46-.37.75-.39,1.25-.01l.86.05.11.45Z"/>
            <path class="cls-5" d="m90.42,12.7c-.06-.04-.1-.08-.15-.11-.13-.08-.22-.1-.33-.06l-.37.26c-.11.09-.11.23-.19.3-.04.03-.36-.07-.3-.28h-.16s-.25,1.05-.25,1.05l-.61.67c-.26.29-.45.63-.07.89l.56-.84.33.22-.63.94c.07.62.23.73.85.6l.23-1.42.4.06-.23,1.47c.12.12.38.34.58.34s.45-.22.57-.34l-.31-1.5.39-.08.3,1.46c.59.05.75-.05.83-.63l-.68-.91.32-.24.6.8c.29-.28.29-.5-.02-.82l-.62-.68-.25-1.05h-.18s-.35.19-.35.19c-.05-.11-.08-.17-.17-.25l-.08-.06Z"/>
          </g>
          <g>
            <path class="cls-3" d="m91.63,4.12l.24.02.28,1.13.22.25s.03.03.07.09c.06.07.1.14.14.21l.14.15s.03.03.07.08c.43.55.29.94-.2,1.34-.1.83-.48,1.05-1.29.95-.22.21-.53.46-.85.46-.31,0-.62-.25-.84-.46-.5.11-.93.12-1.16-.35-.35-.1-.54-.4-.6-.95l-.12-.08c-.55-.4-.39-1.03.03-1.47l.54-.59.3-1.24.81-.04c.46-.37.75-.39,1.25-.01l.86.06.11.45Z"/>
            <path class="cls-5" d="m90.42,3.93c-.06-.04-.1-.08-.15-.11-.13-.08-.22-.1-.33-.06l-.37.26c-.11.09-.11.23-.19.3-.04.04-.36-.07-.3-.28h-.16s-.25,1.06-.25,1.06l-.61.67c-.26.29-.45.63-.07.89l.56-.84.33.22-.63.94c.07.62.23.74.85.6l.23-1.42.4.06-.23,1.47c.12.12.38.34.58.34s.45-.22.57-.34l-.31-1.5.39-.08.3,1.46c.59.05.75-.05.83-.63l-.68-.91.32-.24.6.8c.29-.28.29-.5-.02-.82l-.62-.69-.25-1.05h-.18s-.35.19-.35.19c-.05-.11-.08-.17-.17-.25l-.08-.06Z"/>
          </g>
          <g>
            <polygon class="cls-3" points="106.48 2.36 107.13 3.3 109.02 2.95 108.91 3.5 109.36 3.42 109.03 5.15 110.29 6.01 110.14 6.11 110.6 6.42 109 7.52 109.36 9.42 107.46 9.07 106.36 10.66 106.04 10.21 105.95 10.34 105.1 9.1 103.35 9.42 103.45 8.97 102.89 9.08 103.24 7.19 102.29 6.55 101.62 6.01 103.25 4.89 102.89 2.95 104.83 3.31 105.95 1.68 106.44 2.39 106.48 2.36"/>
            <path class="cls-5" d="m105.15,3.55l.71,1.7s.07,0,.11,0c.04,0,.07,0,.1,0l.68-1.7-.8-1.17-.8,1.17Zm.34,1.86l-.71-1.71-1.39-.26.26,1.39,1.7.71c.04-.05.09-.1.14-.14Zm-.31.5l-1.69-.7-1.17.8,1.17.8,1.68-.69v-.07s0-.09,0-.14Zm.13.59l-1.66.68-.26,1.39,1.39-.26.7-1.64c-.06-.05-.12-.11-.17-.18Zm.54.34l-.69,1.63.8,1.16.8-1.17-.66-1.63s-.08.01-.13.01-.08,0-.12-.01Zm.62-.16l.66,1.64,1.39.26-.26-1.39-1.62-.69c-.05.07-.1.13-.17.18Zm.3-.56l1.65.7,1.17-.8-1.17-.8-1.66.69s.01.1.01.15v.06Zm-.19-.58l1.67-.7.26-1.39-1.39.26-.68,1.7s.09.08.14.13Zm-.61.02c-.27,0-.5.22-.5.5s.22.5.5.5.5-.22.5-.5-.22-.5-.5-.5Z"/>
          </g>
          <g>
            <path class="cls-3" d="m65.99,30.4h.24s.28,1.15.28,1.15l.22.25s.03.03.07.08c.06.07.1.14.14.21l.14.15s.03.03.07.08c.43.55.29.94-.2,1.34-.1.83-.48,1.05-1.29.95-.22.21-.53.46-.85.46-.31,0-.62-.25-.84-.46-.5.11-.93.12-1.16-.35-.35-.1-.54-.4-.6-.95l-.12-.08c-.55-.4-.39-1.03.02-1.47l.54-.59.3-1.24.81-.04c.46-.37.76-.39,1.25-.01l.86.05.11.45Z"/>
            <path class="cls-5" d="m64.78,30.22c-.06-.04-.11-.08-.15-.11-.13-.08-.23-.1-.33-.06l-.37.26c-.11.09-.11.23-.19.3-.04.04-.36-.06-.3-.28h-.15s-.25,1.05-.25,1.05l-.61.67c-.26.29-.44.63-.07.89l.57-.84.33.23-.64.94c.07.62.23.74.85.6l.23-1.42.39.06-.23,1.47c.12.12.38.34.58.34s.45-.22.57-.33l-.31-1.5.39-.08.3,1.46c.59.05.75-.05.83-.63l-.68-.91.32-.24.6.8c.29-.28.29-.5-.01-.82l-.62-.69-.25-1.05h-.18s-.35.19-.35.19c-.05-.11-.08-.17-.17-.25l-.08-.06Z"/>
          </g>
          <g>
            <path class="cls-3" d="m65.99,21.64h.24s.28,1.15.28,1.15l.22.25s.03.03.07.08c.06.07.1.14.14.21l.14.16s.03.03.07.08c.43.55.29.94-.2,1.34-.1.83-.48,1.05-1.29.95-.22.21-.53.46-.85.46-.31,0-.62-.25-.84-.46-.5.11-.93.12-1.16-.35-.35-.1-.54-.4-.6-.95l-.12-.08c-.55-.4-.39-1.03.02-1.47l.54-.59.3-1.24.81-.04c.46-.37.76-.39,1.25-.01l.86.05.11.45Z"/>
            <path class="cls-5" d="m64.78,21.46c-.06-.04-.11-.08-.15-.11-.13-.08-.23-.1-.33-.06l-.37.26c-.11.09-.11.23-.19.3-.04.04-.36-.06-.3-.28h-.15s-.25,1.05-.25,1.05l-.61.67c-.26.28-.44.63-.07.89l.57-.84.33.22-.64.94c.07.62.23.74.85.6l.23-1.42.39.06-.23,1.47c.12.12.38.34.58.35.19,0,.45-.22.57-.34l-.31-1.5.39-.08.3,1.46c.59.05.75-.05.83-.63l-.68-.91.32-.24.6.8c.29-.28.29-.5-.01-.82l-.62-.69-.25-1.05h-.18s-.35.19-.35.19c-.05-.11-.08-.17-.17-.25l-.08-.06Z"/>
          </g>
          <g>
            <path class="cls-3" d="m65.99,12.88h.24s.28,1.15.28,1.15l.22.25s.03.03.07.08c.06.07.1.14.14.21l.14.16s.03.03.07.08c.43.55.29.94-.2,1.34-.1.83-.48,1.05-1.29.96-.22.21-.53.46-.85.46-.31,0-.62-.25-.84-.46-.5.11-.93.12-1.16-.35-.35-.1-.54-.4-.6-.95l-.12-.08c-.55-.4-.39-1.03.02-1.47l.54-.59.3-1.24.81-.04c.46-.37.76-.39,1.25-.01l.86.05.11.45Z"/>
            <path class="cls-5" d="m64.78,12.7c-.06-.04-.11-.08-.15-.11-.13-.08-.23-.1-.33-.06l-.37.26c-.11.09-.11.23-.19.3-.04.03-.36-.07-.3-.28h-.15s-.25,1.05-.25,1.05l-.61.67c-.26.29-.44.63-.07.89l.57-.84.33.22-.64.94c.07.62.23.73.85.6l.23-1.42.39.06-.23,1.47c.12.12.38.34.58.34s.45-.22.57-.34l-.31-1.5.39-.08.3,1.46c.59.05.75-.05.83-.63l-.68-.91.32-.24.6.8c.29-.28.29-.5-.01-.82l-.62-.68-.25-1.05h-.18s-.35.19-.35.19c-.05-.11-.08-.17-.17-.25l-.08-.06Z"/>
          </g>
          <g>
            <path class="cls-3" d="m65.99,4.12l.24.02.28,1.13.22.25s.03.03.07.09c.06.07.1.14.14.21l.14.15s.03.03.07.08c.43.55.29.94-.2,1.34-.1.83-.48,1.05-1.29.95-.22.21-.53.46-.85.46-.31,0-.62-.25-.84-.46-.5.11-.93.12-1.16-.35-.35-.1-.54-.4-.6-.95l-.12-.08c-.55-.4-.39-1.03.02-1.47l.54-.59.3-1.24.81-.04c.46-.37.76-.39,1.25-.01l.86.06.11.45Z"/>
            <path class="cls-5" d="m64.78,3.93c-.06-.04-.11-.08-.15-.11-.13-.08-.23-.1-.33-.06l-.37.26c-.11.09-.11.23-.19.3-.04.04-.36-.07-.3-.28h-.15s-.25,1.06-.25,1.06l-.61.67c-.26.29-.44.63-.07.89l.57-.84.33.22-.64.94c.07.62.23.74.85.6l.23-1.42.39.06-.23,1.47c.12.12.38.34.58.34s.45-.22.57-.34l-.31-1.5.39-.08.3,1.46c.59.05.75-.05.83-.63l-.68-.91.32-.24.6.8c.29-.28.29-.5-.01-.82l-.62-.69-.25-1.05h-.18s-.35.19-.35.19c-.05-.11-.08-.17-.17-.25l-.08-.06Z"/>
          </g>
          <polygon class="cls-4" points="85.98 .6 82.93 .6 77.25 6.29 71.56 .6 68.52 .6 68.52 3.64 73.35 8.5 68.52 13.3 68.52 16.35 71.54 16.35 77.25 10.67 82.95 16.35 85.98 16.35 85.98 13.33 81.12 8.5 85.98 3.66 85.98 .6"/>
          <path class="cls-6" d="m77.79,34.15h6.41c1.3-.49,1.64-.93,1.78-2.32v-14.88h-8.19v17.2Z"/>
          <g>
            <path class="cls-3" d="m79.79,24.94c-.14-.05-.26-.13-.35-.28-.02-.03-.03-.05-.04-.08-.51-.19-.66-.7-.35-1.29-.81-.56-.89-1.12-.12-1.79-.62-.59-.27-1.8.59-1.93-.09-.98.57-1.29,1.43-1.13.51-.71,1.65-.76,2.12-.03.58-.28,1.1-.1,1.23.4.03.01.06.03.1.05.22.14.28.35.29.57.21.13.35.3.42.5.17.12.3.27.37.5.11.41-.06.81-.29,1.13.33.33.58.73.51,1.16-.07.39-.25.85-.69.94.36.65.21,1.37-.61,1.48-.1.01-.2.01-.27.01.03.93-.44,1.17-1.28.83-.04.94-.03,1.91.08,2.85.04.4.16.77.38,1.09.24.25.51.49.73.66l1.08.8-.07.14.43.32-.13.27s-.78-.22-1.25-.43c-.26-.11-.54-.23-.77-.41l-.07-.06c.02.05.04.1.06.14l.3.91-.25.15s-.19-.19-.38-.41c-.04.03-.44-.38-.68-.65-.06-.06-.1-.13-.14-.2-.27.28-.7.82-.82,1.02-.13.22-.95.97-1.2,1.2l-.23-.18.33-.62-.45.42-.31-.24.4-.75s.22-.37.3-.51c-.41.18-.79.31-1.29.46l-.12-.27.66-.41c-.29.11-.6.22-.91.31l-.16-.36.85-.53s.31-.17.67-.44c1.39-1.02,1.16-1.5,1.32-2.99.04-.33.05-.75.07-1.11-.39.08-.8.07-.94-.35-.35-.08-.54-.37-.51-.89Z"/>
            <path class="cls-1" d="m80.45,31.81c.27-.28,1-1.44,1.32-1.5.44-.09.62.57.85.83l-.03-.08s-.02-.06-.03-.14c-.05-.42.27-.53.59-.31.2.14.44.25.67.34-.04-.03-.27-.21-.54-.46-1.2-1.11-1.05-1.66-1.18-3.13-.07-.78.02-2.33.02-2.33,1,.53,1.37.61,1.2-.67.24.03.9.11,1.03-.17.3-.59-.33-1.11-.65-1.46,0,0,.69.18.72.18.56.03.76-1.03.02-1.58l-.18-.13c.26-.28.59-.67.47-1.1-.11-.41-.6-.48-.93-.52.06-.19.24-.7,0-.85-.33-.21-.71.12-.95.29,0,0-.09-.32-.1-.34-.25-.59-1.26-.48-1.55.07l-.08.14c-.24-.07-.83-.21-1.03,0-.32.32-.18.74-.08,1.09-.39-.04-.83-.09-.96.45-.17.69.11.79.62,1-1.02.7-1.31,1.02-.06,1.72-.73.95-.22,1.16.73,1.05-.08.26-.31.92-.1,1.16.25.28,1.13-.2,1.37-.33,0,0,0,1.53-.08,2.28-.16,1.51.05,2.09-1.33,3.16.19-.09.69-.39.91-.18.28.28-.43.99-.6,1.33l-.09.16Z"/>
          </g>
          <path class="cls-5" d="m77.5,11.48l-4.94,4.87h9.83l-4.89-4.87Zm-8.98,1.26l4.26-4.24-4.26-4.29v8.53Zm17.46-8.03l-4.04,4.03,4.04,4.02V4.71Zm-3.62-4.11h-10.23l5.12,5.12,5.11-5.12Z"/>
        </g>
        <g>
          <path class="cls-3" d="m99.54,51.8h-4.82v2.44s0,.1-.04.22c-.11.42-.44.7-.87.73h-31.26s0,2.39,0,2.39c.01.5-.43.94-.93.94h-3.96v-.56s-.95,0-.95,0v-7.54h3.56v-2.23c0-.33.14-.59.31-.8.19-.17.43-.3.69-.32h.07s31.13,0,31.13,0v-2.29c0-.49.36-.94.84-1.06.08-.02.14-.03.18-.03h.07s6.5,0,6.5,0h.07c.51.03.92.41,1.01.9.4.12.66.49.67.91v1.57h30.55c.25.02.5.15.69.32.14.17.25.37.29.58.12.04.26.11.4.23.15.18.26.4.27.64v1.58s2.91,0,2.91,0v.86h.65v7.24h-3.96s-.1,0-.23-.03c-.31-.08-.52-.28-.63-.53-.05,0-.12-.01-.2-.04-.46-.12-.85-.58-.81-1.06v-1.66h-30.31c-.4-.02-.68-.25-.83-.56-.61-.04-1.05-.56-1.05-1.11v-1.73Z"/>
          <path class="cls-5" d="m93.47,53.56l-1.01-2.32v-3.58h-31.14c-.12,0-.23.06-.32.14-.07.09-.14.21-.14.34v5.89h32.12c.27-.04.44-.2.48-.47Zm39.89-2.54v3.62l-1.03,2.29c.07.28.25.43.47.44h3.51v-6.34h-2.96Zm-.75,3.62h-.29v.7s.29-.7.29-.7Zm-71.6,0l.29.7v-.7s-.29,0-.29,0Zm.28,2.29l-.93-2.29h-.1v-3.62h-2.96v6.34h3.51s.05,0,.11-.02c.2-.05.34-.21.36-.42Zm32.15-12.62c-.21.05-.37.25-.38.47v5.87h7.49v-5.85s0-.05-.02-.13c-.06-.23-.23-.36-.46-.37h-6.56s-.04,0-.07,0Zm6.7,9.19s0,.08.02.16c.04.17.23.37.41.38h32.18s0-5.89,0-5.89c0-.12-.07-.24-.14-.34-.09-.08-.2-.13-.32-.14h-31.14v3.57l-1.01,2.26Zm.27-2.26h-.27v.69l.27-.69Zm-7.21,0h.27v.69l-.27-.69Z"/>
          <path class="cls-3" d="m66.73,52.62c.14-.02.24-.05.31-.12.07-.06.21-.23.43-.5l.8-1.04-.57-.87c-.25-.37-.42-.61-.52-.7-.1-.09-.23-.14-.4-.15v-.1h1.55v.1c-.15,0-.25.02-.29.03-.07.02-.1.07-.1.15,0,.05.02.11.05.18.02.03.04.07.07.12l.53.81.58-.74c.08-.11.14-.19.17-.26.02-.04.03-.07.03-.11,0-.08-.04-.13-.11-.16-.05-.02-.13-.03-.25-.03v-.1h1.22v.1c-.14,0-.24.03-.32.07-.12.07-.27.22-.44.44l-.76.98.99,1.49c.1.16.19.26.26.3.07.04.17.07.31.1v.1h-1.52v-.11c.14,0,.25-.02.3-.04.06-.02.09-.07.09-.13,0-.06-.04-.15-.12-.28-.08-.13-.29-.46-.64-1l-.6.81c-.09.12-.15.21-.19.26-.06.09-.08.15-.08.19,0,.08.04.13.13.16.05.02.14.04.26.04v.1h-1.19v-.1Zm6.56-3.48v.1c-.2.01-.32.05-.38.11-.06.05-.09.18-.09.38v1.73c0,.28.04.5.11.66.14.29.4.43.78.43.42,0,.7-.15.84-.44.08-.16.12-.42.12-.76v-1.41c0-.29-.03-.48-.1-.55-.07-.08-.19-.12-.38-.14v-.1h1.19v.1c-.2.02-.33.07-.39.15-.06.08-.09.26-.09.54v1.41c0,.37-.06.66-.16.87-.2.38-.58.58-1.14.58s-.93-.19-1.13-.57c-.11-.2-.16-.47-.16-.8v-1.69c0-.2-.03-.32-.09-.38-.06-.05-.18-.09-.38-.11v-.1h1.45Zm2.24,3.48c.21-.02.35-.07.41-.15.06-.08.09-.26.09-.54v-2.2c0-.2-.03-.32-.09-.38-.06-.06-.19-.1-.4-.11v-.1h1.01l1.19,2.72,1.13-2.72h1.02v.1c-.19.01-.31.05-.37.11-.06.06-.08.18-.08.37v2.4c0,.2.03.32.08.38.06.05.18.09.37.11v.1h-1.44v-.1c.21-.02.34-.06.39-.12.05-.06.08-.21.08-.44v-2.43l-1.31,3.07h-.07l-1.29-2.95v2.16c0,.29.04.49.12.58.05.06.17.1.36.12v.1h-1.2v-.1Zm6.69-.26c.18-.11.27-.31.27-.62s-.1-.51-.31-.62c-.21-.11-.47-.17-.79-.17h-.25s0,1.34,0,1.34c0,.09.03.15.07.18.05.03.17.04.35.04.26,0,.48-.05.66-.16Zm-2.1.26c.21-.01.34-.05.4-.1.06-.06.09-.19.09-.39v-2.4c0-.2-.03-.33-.09-.38-.06-.06-.2-.09-.4-.1v-.1h1.44c.41,0,.74.07.98.21.24.14.36.38.36.72,0,.26-.08.45-.25.58-.09.08-.24.14-.43.19.24.06.44.16.6.3.16.14.25.34.25.59,0,.42-.19.71-.56.87-.19.08-.43.12-.72.12h-1.67v-.1Zm1.93-1.96c.21-.11.32-.3.32-.57,0-.32-.12-.54-.37-.65-.14-.06-.35-.09-.63-.09-.11,0-.17,0-.2.03-.02.02-.04.07-.04.16v1.22h.49c.17-.01.31-.04.43-.09Zm3.21.09c.27-.12.41-.34.41-.67s-.12-.53-.37-.64c-.13-.06-.3-.09-.52-.09-.15,0-.24,0-.27.03-.03.02-.05.07-.05.15v1.33c.37-.02.63-.05.79-.12Zm-1.75,1.87c.2-.02.32-.06.37-.12.05-.06.07-.2.07-.43v-2.34c0-.19-.03-.31-.08-.37-.05-.06-.17-.1-.36-.11v-.1h1.42c.3,0,.54.04.74.12.37.15.56.42.56.83,0,.27-.08.48-.25.62-.16.14-.39.24-.68.28l1.06,1.37c.06.08.13.14.2.18.06.04.15.06.25.07v.1h-.83l-1.22-1.66h-.29v1.07c0,.2.03.33.08.38.06.05.18.09.38.11v.1h-1.43v-.1Zm5.5-1.29l-.59-1.49-.59,1.49h1.18Zm-2.22,1.39v-.1c.13-.02.23-.07.3-.16.07-.09.18-.33.34-.73l1.07-2.65h.1l1.28,3.06c.09.2.15.33.2.38.05.05.14.08.26.1v.1h-1.3v-.1c.15-.01.25-.03.29-.05.04-.02.06-.07.06-.15,0-.03,0-.07-.03-.14-.02-.07-.04-.14-.07-.21l-.21-.52h-1.34c-.13.35-.21.57-.24.65-.03.08-.04.14-.04.18,0,.09.03.16.1.19.04.02.13.04.25.05v.1h-1.02Zm7.22-3.62c.22-.01.36-.05.43-.1.07-.05.1-.18.1-.39v-2.4c0-.2-.03-.33-.1-.38-.06-.06-.21-.09-.43-.1v-.1h1.6v.1c-.22.01-.36.04-.43.1-.06.06-.1.18-.1.38v2.4c0,.21.03.34.1.39.06.05.21.08.43.1v.1h-1.6v-.1Zm1.77,0c.22-.02.37-.07.43-.15.06-.08.1-.26.1-.55v-2.38l-.07-.09c-.08-.09-.15-.15-.2-.17-.05-.02-.14-.04-.25-.04v-.1h.92l2.08,2.6v-1.81c0-.29-.04-.49-.13-.58-.06-.06-.19-.1-.38-.11v-.1h1.27v.1c-.21.02-.34.07-.41.15-.07.08-.1.26-.1.54v2.84h-.09l-2.39-2.96v2.11c0,.3.04.49.13.58.06.06.18.1.38.12v.1h-1.27v-.1Zm11.59,2.46c.09.24.2.44.32.58.21.25.48.38.8.38.17,0,.32-.05.45-.16.13-.11.19-.26.19-.46,0-.18-.06-.33-.19-.46-.08-.08-.25-.21-.52-.37l-.46-.29c-.14-.09-.25-.18-.33-.27-.15-.17-.23-.36-.23-.57,0-.27.09-.5.27-.68.18-.18.42-.27.72-.27.12,0,.27.03.44.09.17.06.27.09.3.09.07,0,.11-.02.13-.05.03-.03.05-.08.06-.13h.11l.12,1.15h-.13c-.09-.35-.23-.59-.42-.72-.19-.14-.38-.21-.57-.21-.15,0-.28.04-.39.13-.11.08-.16.21-.16.36,0,.14.04.26.13.36.08.1.21.21.39.31l.47.29c.3.18.51.35.63.5.12.15.18.34.18.55,0,.28-.11.52-.32.71-.21.19-.49.29-.82.29-.17,0-.34-.03-.52-.1-.18-.06-.29-.09-.31-.09-.06,0-.1.02-.13.06-.02.04-.04.08-.04.12h-.12l-.16-1.15h.12Zm4.09.56c.22.27.5.41.82.41s.59-.13.81-.4c.23-.27.34-.69.34-1.27s-.11-1.01-.34-1.28c-.23-.26-.5-.39-.81-.39s-.6.14-.82.41c-.22.27-.33.69-.33,1.26s.11.99.33,1.26Zm-.4-2.65c.33-.32.74-.48,1.23-.48s.89.16,1.23.48c.36.35.54.81.54,1.38s-.19,1.05-.56,1.4c-.33.31-.74.46-1.21.46-.51,0-.93-.17-1.26-.51-.34-.35-.51-.8-.51-1.35s.18-1.04.54-1.39Zm3.58,3.08c.2-.02.33-.06.39-.11.06-.05.09-.18.09-.38v-2.4c0-.19-.03-.32-.09-.38-.06-.06-.19-.1-.39-.11v-.1h1.53v.1c-.2.01-.33.04-.4.1-.07.06-.1.17-.1.35v2.6c0,.06,0,.11.03.14.02.03.07.05.13.06h.13s.25.01.25.01c.48,0,.81-.04.97-.12.17-.08.33-.28.49-.61h.14l-.26.94h-2.91v-.1Zm3.62,0c.2-.02.33-.06.39-.11.06-.05.09-.18.09-.38v-2.4c0-.19-.03-.32-.09-.38-.06-.06-.19-.1-.39-.11v-.1h2.87l.02.78h-.14c-.05-.24-.12-.39-.21-.46-.09-.07-.3-.1-.61-.1h-.73c-.08,0-.13.01-.15.04-.02.03-.03.07-.03.14v1.21h.83c.23,0,.38-.04.44-.1.06-.07.11-.21.15-.42h.13v1.25h-.13c-.04-.21-.09-.35-.16-.41-.06-.07-.21-.1-.44-.1h-.83v1.34c0,.11.03.17.1.19.07.02.27.03.61.03.37,0,.64-.04.81-.12.17-.08.33-.28.47-.58h.15l-.24.91h-2.92v-.1Zm3.62,0c.22-.02.37-.07.43-.15.06-.08.09-.26.09-.55v-2.19c0-.2-.03-.32-.09-.38-.06-.06-.2-.1-.42-.11v-.1h1.07l1.25,2.72,1.19-2.72h1.08v.1c-.2.02-.33.05-.39.11-.06.06-.09.18-.09.38v2.4c0,.2.03.32.09.38.06.05.19.09.39.11v.1h-1.51v-.1c.22-.02.35-.06.41-.12.05-.06.08-.21.08-.44v-2.43l-1.38,3.07h-.08l-1.36-2.95v2.15c0,.3.04.49.13.58.06.06.18.1.38.12v.1h-1.27v-.1Zm-58.29.07c.19-.02.31-.06.36-.11.06-.05.08-.18.08-.38v-2.4c0-.19-.03-.32-.08-.37-.06-.06-.18-.1-.37-.11v-.1h2.73l.02.78h-.13c-.04-.24-.11-.39-.19-.46-.09-.07-.28-.1-.58-.1h-.7c-.07,0-.12.01-.14.04-.02.03-.02.07-.02.14v1.21h.79c.22,0,.36-.04.42-.1.06-.07.11-.21.15-.42h.12v1.25h-.12c-.04-.21-.09-.35-.15-.41-.06-.07-.2-.11-.41-.11h-.79v1.34c0,.11.03.17.1.19.06.02.26.03.58.03.35,0,.6-.04.77-.12.16-.08.31-.28.45-.58h.14l-.23.91h-2.77v-.1Z"/>
        </g>
      </g>
    </g>
  </g>
</svg>